<svg width="449" height="436" fill="none" xmlns="http://www.w3.org/2000/svg"><g filter="url(#filter0_di)"><circle cx="224.161" cy="215.58" r="190.42" transform="rotate(-180 224.161 215.58)" fill="#F7F7F7"/></g><path d="M113.513 239.854l-76.311 15.455C25.61 147.12 74.742 83.508 127.177 51.179c110.704-59.61 203.622-1 236.548 35.483 50.204 55.629 55.034 113.587 46.341 168.647l-73.414-15.455c4.83-28.014 1.932-42.503-6.044-66.853-41.396-86.34-130.101-78.06-162.035-55.588-72.447 44.197-55.06 122.441-55.06 122.441z" fill="url(#paint0_linear)"/><path d="M406.34 159.991C382.555 81.942 309.989 25.159 224.161 25.159c-105.166 0-190.42 85.254-190.42 190.421 0 13.624 1.43 26.915 4.15 39.729" stroke="url(#paint1_linear)" stroke-width="4.948"/><path stroke="#F5F5F5" stroke-width="1.237" d="M372.885 100.765l7.581-5.663M334.082 63.21l5.434-7.746m-55.063-17.487l3.036-8.962"/><path d="M350.927 170.143a1.237 1.237 0 01.731 2.061l-16.767 18.249a1.236 1.236 0 01-2.076-.424l-7.752-21.85a1.237 1.237 0 011.346-1.637l24.518 3.601z" fill="#5B5B5B"/><g filter="url(#filter1_d)"><circle cx="225.344" cy="216.763" r="113.543" fill="#fff"/></g><circle cx="225.344" cy="216.763" r="96.984" fill="#89C142"/><circle cx="405.12" cy="155.261" r="14.193" fill="#89C142"/><circle cx="405.119" cy="155.261" r="7.096" fill="#fff"/><path d="M189.283 181.987h20.229v4.626l-11.902 25.149h-5.93l12.154-24.981h-14.551v-4.794zm31.323 29.775l7.149-11.019-.084-.084c-.308.168-.729.295-1.262.379a9.197 9.197 0 01-1.514.126c-1.317 0-2.523-.253-3.616-.757a9.1 9.1 0 01-2.86-2.061 9.77 9.77 0 01-1.851-3.028 10.575 10.575 0 01-.63-3.659c0-1.542.266-2.944.799-4.205.532-1.262 1.261-2.327 2.187-3.196a9.795 9.795 0 013.364-2.061c1.318-.477 2.734-.715 4.248-.715 1.542 0 2.957.238 4.247.715 1.318.449 2.439 1.107 3.365 1.977.953.869 1.682 1.934 2.186 3.196.533 1.261.799 2.677.799 4.247 0 1.57-.266 3-.799 4.29a25.213 25.213 0 01-1.976 3.869l-7.612 11.986h-6.14zm11.229-20.061c0-.757-.141-1.458-.421-2.102a4.963 4.963 0 00-1.178-1.725 4.96 4.96 0 00-1.724-1.177 5.208 5.208 0 00-2.103-.421c-.757 0-1.472.14-2.144.421-.645.28-1.22.673-1.725 1.177a5.284 5.284 0 00-1.135 1.725 5.2 5.2 0 00-.421 2.102c0 .757.14 1.472.421 2.145.28.645.659 1.22 1.135 1.724.505.477 1.08.856 1.725 1.136a5.52 5.52 0 002.144.421c.757 0 1.458-.141 2.103-.421a5.256 5.256 0 001.724-1.136 5.527 5.527 0 001.178-1.724c.28-.673.421-1.388.421-2.145zm10.505 5.173c0-2.355.182-4.36.547-6.014.392-1.682.897-3.084 1.513-4.205.617-1.15 1.304-2.061 2.061-2.734.785-.701 1.57-1.219 2.355-1.556.813-.364 1.584-.603 2.313-.715a13.748 13.748 0 011.977-.168c.561 0 1.206.056 1.934.168a8.439 8.439 0 012.313.715c.814.337 1.599.855 2.356 1.556.785.673 1.486 1.584 2.102 2.734.617 1.121 1.108 2.523 1.472 4.205.393 1.654.589 3.659.589 6.014 0 2.355-.196 4.374-.589 6.056-.364 1.654-.855 3.056-1.472 4.206-.616 1.121-1.317 2.032-2.102 2.733-.757.673-1.542 1.192-2.356 1.556a9.322 9.322 0 01-2.313.673c-.728.112-1.373.168-1.934.168-.561 0-1.22-.056-1.977-.168a10.06 10.06 0 01-2.313-.673c-.785-.364-1.57-.883-2.355-1.556-.757-.701-1.444-1.612-2.061-2.733-.616-1.15-1.121-2.552-1.513-4.206-.365-1.682-.547-3.701-.547-6.056zm5.046 0c0 .925.056 2.005.169 3.238a15.41 15.41 0 00.799 3.449c.392 1.093.967 2.019 1.724 2.776.757.757 1.766 1.135 3.028 1.135s2.271-.378 3.028-1.135c.757-.757 1.332-1.683 1.724-2.776a13.97 13.97 0 00.757-3.449c.14-1.233.21-2.313.21-3.238 0-.925-.07-1.99-.21-3.196a14.032 14.032 0 00-.757-3.491c-.392-1.093-.967-2.018-1.724-2.775-.757-.757-1.766-1.136-3.028-1.136s-2.271.379-3.028 1.136c-.757.757-1.332 1.682-1.724 2.775a15.434 15.434 0 00-.799 3.491 34.7 34.7 0 00-.169 3.196zm-61.337 52.485c-1.944 1.039-4.119 1.559-6.524 1.559-1.217 0-2.337-.193-3.361-.579a8.03 8.03 0 01-2.628-1.67 7.89 7.89 0 01-1.714-2.605c-.416-1.009-.623-2.13-.623-3.362 0-1.262.207-2.405.623-3.429.416-1.039.987-1.922 1.714-2.649a7.555 7.555 0 012.628-1.67c1.024-.401 2.144-.601 3.361-.601 1.203 0 2.331.148 3.385.445a6.852 6.852 0 012.827 1.536l-2.07 2.093a5.174 5.174 0 00-1.848-1.135 6.423 6.423 0 00-2.271-.401c-.817 0-1.559.148-2.227.445a4.891 4.891 0 00-1.692 1.203 5.47 5.47 0 00-1.113 1.781 6.311 6.311 0 00-.379 2.204c0 .846.127 1.625.379 2.338a5.645 5.645 0 001.113 1.848 5.168 5.168 0 001.692 1.224c.668.297 1.41.445 2.227.445.712 0 1.38-.066 2.004-.2a5.731 5.731 0 001.692-.623v-3.719h-3.229v-2.538h6.034v8.06zm2.545-4.186c0-.846.149-1.61.446-2.293a5.49 5.49 0 011.246-1.781 5.468 5.468 0 011.848-1.136c.713-.267 1.47-.4 2.271-.4.802 0 1.559.133 2.271.4a5.448 5.448 0 011.848 1.136 5.22 5.22 0 011.225 1.781c.312.683.467 1.447.467 2.293 0 .846-.155 1.618-.467 2.316a5.276 5.276 0 01-1.225 1.759 5.43 5.43 0 01-1.848 1.135 6.415 6.415 0 01-2.271.401 6.423 6.423 0 01-2.271-.401 5.45 5.45 0 01-1.848-1.135 5.558 5.558 0 01-1.246-1.759c-.297-.698-.446-1.47-.446-2.316zm2.672 0c0 .416.067.817.2 1.203.149.386.357.727.624 1.024a3.099 3.099 0 002.315.979c.49 0 .928-.089 1.314-.267.386-.178.712-.415.98-.712.282-.297.489-.638.623-1.024.148-.386.223-.787.223-1.203 0-.415-.075-.816-.223-1.202a2.805 2.805 0 00-.623-1.024 3 3 0 00-.98-.713 3.103 3.103 0 00-1.314-.267c-.49 0-.927.089-1.313.267-.386.179-.72.416-1.002.713a3.286 3.286 0 00-.624 1.024c-.133.386-.2.787-.2 1.202zm10.917 0c0-.846.149-1.61.446-2.293a5.477 5.477 0 011.247-1.781 5.448 5.448 0 011.848-1.136 6.412 6.412 0 012.27-.4c.802 0 1.559.133 2.271.4a5.448 5.448 0 011.848 1.136 5.22 5.22 0 011.225 1.781c.312.683.468 1.447.468 2.293 0 .846-.156 1.618-.468 2.316a5.276 5.276 0 01-1.225 1.759 5.43 5.43 0 01-1.848 1.135 6.415 6.415 0 01-2.271.401 6.413 6.413 0 01-2.27-.401 5.43 5.43 0 01-1.848-1.135 5.545 5.545 0 01-1.247-1.759c-.297-.698-.446-1.47-.446-2.316zm2.672 0c0 .416.067.817.201 1.203.148.386.356.727.623 1.024.282.297.616.534 1.002.712.386.178.824.267 1.313.267.49 0 .928-.089 1.314-.267.386-.178.713-.415.98-.712.282-.297.49-.638.623-1.024.149-.386.223-.787.223-1.203a3.31 3.31 0 00-.223-1.202 2.792 2.792 0 00-.623-1.024 2.99 2.99 0 00-.98-.713 3.103 3.103 0 00-1.314-.267c-.489 0-.927.089-1.313.267-.386.179-.72.416-1.002.713a3.265 3.265 0 00-.623 1.024 3.64 3.64 0 00-.201 1.202zm19.913 3.741h-.045c-.386.653-.905 1.128-1.559 1.425a5.047 5.047 0 01-2.115.445c-.831 0-1.573-.141-2.226-.423a5.147 5.147 0 01-1.648-1.202 5.096 5.096 0 01-1.046-1.781 6.655 6.655 0 01-.356-2.205c0-.786.126-1.521.378-2.204a5.572 5.572 0 011.047-1.781 4.855 4.855 0 011.647-1.18 4.899 4.899 0 012.093-.445c.505 0 .95.052 1.336.156.386.103.727.237 1.024.4.297.164.549.342.757.535.208.178.379.356.512.534h.067v-7.503h2.672v16.832h-2.538v-1.603zm-6.324-3.741c0 .416.067.817.201 1.203.148.386.356.727.623 1.024.282.297.616.534 1.002.712.386.178.824.267 1.314.267.489 0 .927-.089 1.313-.267.386-.178.713-.415.98-.712.282-.297.49-.638.623-1.024.149-.386.223-.787.223-1.203a3.31 3.31 0 00-.223-1.202 2.792 2.792 0 00-.623-1.024 2.99 2.99 0 00-.98-.713 3.102 3.102 0 00-1.313-.267c-.49 0-.928.089-1.314.267-.386.179-.72.416-1.002.713a3.265 3.265 0 00-.623 1.024 3.64 3.64 0 00-.201 1.202zm26.446.98c0 .623-.104 1.225-.312 1.803a4.312 4.312 0 01-.891 1.537c-.385.43-.875.772-1.469 1.024-.594.267-1.284.401-2.071.401-1.246 0-2.271-.29-3.072-.869-.787-.579-1.306-1.499-1.559-2.761l2.628-.623c.089.52.296.935.623 1.247.341.312.757.467 1.247.467.801 0 1.343-.267 1.625-.801.297-.549.445-1.299.445-2.249v-10.575h2.806v11.399zm2.627-.98c0-.846.148-1.61.445-2.293a5.507 5.507 0 011.247-1.781 5.468 5.468 0 011.848-1.136 6.414 6.414 0 012.271-.4c.802 0 1.559.133 2.271.4a5.468 5.468 0 011.848 1.136c.519.49.928 1.083 1.224 1.781.312.683.468 1.447.468 2.293 0 .846-.156 1.618-.468 2.316a5.274 5.274 0 01-1.224 1.759 5.45 5.45 0 01-1.848 1.135 6.415 6.415 0 01-2.271.401 6.415 6.415 0 01-2.271-.401 5.45 5.45 0 01-1.848-1.135 5.577 5.577 0 01-1.247-1.759c-.297-.698-.445-1.47-.445-2.316zm2.672 0c0 .416.066.817.2 1.203.149.386.356.727.623 1.024.283.297.616.534 1.002.712.386.178.824.267 1.314.267.49 0 .928-.089 1.314-.267.386-.178.712-.415.979-.712.282-.297.49-.638.624-1.024.148-.386.222-.787.222-1.203a3.33 3.33 0 00-.222-1.202 2.808 2.808 0 00-.624-1.024 2.986 2.986 0 00-.979-.713 3.103 3.103 0 00-1.314-.267c-.49 0-.928.089-1.314.267a3.263 3.263 0 00-1.002.713 3.284 3.284 0 00-.623 1.024 3.64 3.64 0 00-.2 1.202zm11.451-11.488h2.672v7.503h.067c.134-.178.304-.356.512-.534.208-.193.46-.371.757-.535a4.573 4.573 0 011.024-.4 5.154 5.154 0 011.336-.156c.757 0 1.455.148 2.093.445a4.63 4.63 0 011.625 1.18c.46.505.817 1.098 1.069 1.781a6.32 6.32 0 01.379 2.204c0 .787-.119 1.522-.357 2.205a5.096 5.096 0 01-1.046 1.781 5.078 5.078 0 01-1.67 1.202c-.653.282-1.388.423-2.204.423a5.047 5.047 0 01-2.115-.445c-.653-.297-1.173-.772-1.559-1.425h-.044v1.603h-2.539v-16.832zm8.862 11.488a3.31 3.31 0 00-.223-1.202 2.792 2.792 0 00-.623-1.024 2.99 2.99 0 00-.98-.713 3.103 3.103 0 00-1.314-.267c-.489 0-.927.089-1.313.267-.386.179-.72.416-1.002.713a3.265 3.265 0 00-.623 1.024 3.64 3.64 0 00-.201 1.202c0 .416.067.817.201 1.203.148.386.356.727.623 1.024.282.297.616.534 1.002.712.386.178.824.267 1.313.267.49 0 .928-.089 1.314-.267.386-.178.713-.415.98-.712.282-.297.49-.638.623-1.024.149-.386.223-.787.223-1.203zm8.28.401h-2.672v-10.82h2.672v10.82zm-3.117 3.384c0-.475.17-.883.512-1.224a1.768 1.768 0 011.269-.512c.475 0 .89.163 1.247.49.356.326.534.727.534 1.202s-.178.883-.534 1.224a1.696 1.696 0 01-1.247.512c-.238 0-.468-.044-.691-.133a1.993 1.993 0 01-.556-.356 1.82 1.82 0 01-.401-.535 1.677 1.677 0 01-.133-.668z" fill="#fff"/><path d="M14.202 268.502l-.066-.378a5.318 5.318 0 00-.144-.615 1.808 1.808 0 00-.256-.533 1.136 1.136 0 00-.427-.366c-.175-.087-.395-.128-.662-.123-.342.009-.601.129-.779.361-.177.231-.234.53-.17.895.05.293.183.554.4.785.207.232.473.39.797.476l-.154 1.571a3.114 3.114 0 01-.92-.38 3 3 0 01-.697-.62 3.274 3.274 0 01-.49-.794 4.113 4.113 0 01-.272-.919 3.557 3.557 0 01-.033-1.061c.04-.342.14-.64.297-.893.147-.26.358-.468.632-.624.265-.163.593-.25.985-.259.474-.015.922.104 1.342.357.411.247.714.596.91 1.048l.027.008c-.014-.559.155-.986.505-1.281.351-.295.8-.452 1.35-.472a2.72 2.72 0 011.164.199c.352.149.664.354.936.616.263.264.483.569.66.915.17.348.287.712.353 1.094.062.357.08.698.052 1.02a2.43 2.43 0 01-.214.866 2.067 2.067 0 01-.52.693 2.638 2.638 0 01-.876.453l-.695-1.549c.35-.103.606-.268.767-.497.16-.237.206-.551.138-.941a1.644 1.644 0 00-.194-.543 1.745 1.745 0 00-.355-.453 1.574 1.574 0 00-.492-.304 1.524 1.524 0 00-.597-.11c-.283.007-.502.074-.655.201a.907.907 0 00-.335.46 1.696 1.696 0 00-.091.631c.005.225.027.447.065.667l.062.353-1.348.046zm-.005-5.019c-.699.021-1.304-.016-1.814-.112a5.754 5.754 0 01-1.323-.385 3.51 3.51 0 01-.917-.582 2.982 2.982 0 01-.58-.665 3.015 3.015 0 01-.33-.671 4.063 4.063 0 01-.147-.564 3.811 3.811 0 01-.049-.57c-.004-.216.028-.44.097-.669.06-.237.174-.47.344-.7.16-.229.397-.437.707-.625.301-.194.692-.354 1.172-.479.473-.124 1.059-.197 1.758-.217.7-.021 1.308.015 1.827.11.509.087.95.216 1.322.385.363.163.669.357.917.582.239.218.432.44.58.665.14.227.245.447.315.661.07.214.12.402.148.564.029.163.045.352.049.569a2.58 2.58 0 01-.083.68c-.069.23-.183.463-.343.7-.17.23-.405.438-.708.625-.31.188-.701.347-1.172.479-.48.125-1.07.199-1.77.219zm-.253-1.462c.275-.006.593-.032.953-.078a4.06 4.06 0 00.982-.27 1.89 1.89 0 00.737-.53c.187-.225.249-.52.185-.886-.063-.365-.226-.651-.487-.857a2.73 2.73 0 00-.912-.482 4.439 4.439 0 00-1.063-.192 13.57 13.57 0 00-.97-.02 9.323 9.323 0 00-.941.075c-.36.046-.693.133-.997.261a1.89 1.89 0 00-.737.53c-.187.225-.249.52-.185.885.063.366.226.656.49.87.261.205.565.362.91.469.345.108.704.175 1.077.203.363.02.682.028.958.022zm-.998-5.75c-.7.021-1.304-.016-1.814-.112a5.753 5.753 0 01-1.323-.386 3.483 3.483 0 01-.917-.581 2.986 2.986 0 01-.58-.666 3.01 3.01 0 01-.33-.67 4.036 4.036 0 01-.147-.565 3.785 3.785 0 01-.049-.569c-.004-.217.028-.44.097-.67.06-.236.174-.469.343-.699.162-.229.398-.437.708-.625.301-.195.692-.355 1.172-.48.473-.124 1.059-.196 1.758-.217.7-.021 1.308.016 1.827.11.509.088.95.216 1.322.386.363.163.669.357.917.582.239.218.432.439.58.665.14.227.245.447.315.661a4 4 0 01.148.564c.029.162.045.352.049.569a2.58 2.58 0 01-.083.68 2.603 2.603 0 01-.343.7 2.47 2.47 0 01-.708.624c-.31.188-.701.348-1.172.48-.48.125-1.07.198-1.77.219zm-.253-1.462c.275-.006.593-.032.953-.078a4.06 4.06 0 00.982-.271c.304-.128.55-.304.737-.529.187-.225.249-.52.185-.886-.063-.366-.226-.651-.487-.857a2.71 2.71 0 00-.913-.482 4.344 4.344 0 00-1.062-.192 9.322 9.322 0 00-1.911.055c-.36.046-.693.133-.997.261-.304.128-.55.304-.737.529-.187.225-.249.521-.185.886.063.366.226.655.49.869.261.206.565.363.91.47.345.108.704.175 1.077.202.363.021.682.029.958.023zM291.634 8.467l-3.362-1.061-.796 1.577c.13-.002.28.015.45.051.178.04.342.082.491.13.409.129.754.311 1.034.547a2.098 2.098 0 01.799 1.822c-.02.365-.125.751-.314 1.159a3.573 3.573 0 01-.784 1.088 3.47 3.47 0 01-1.054.666c-.376.15-.781.229-1.217.238a3.86 3.86 0 01-1.278-.183c-.668-.211-1.165-.54-1.49-.99-.326-.448-.438-1.011-.336-1.688l1.66.083c-.04.316.016.593.166.83.149.238.405.414.767.528a1.742 1.742 0 001.223-.054 1.795 1.795 0 00.879-.851c.131-.279.19-.533.176-.762a1.165 1.165 0 00-.21-.61 1.445 1.445 0 00-.488-.466 2.868 2.868 0 00-.702-.326 4.434 4.434 0 00-.965-.188 4.421 4.421 0 00-.966.02l2.143-4.279 4.753 1.501-.579 1.218zm5.162.074c.354.112.66.265.919.459.269.189.476.41.621.663.155.248.236.524.244.83.01.296-.065.615-.224.954a2.58 2.58 0 01-.856 1.026 2.054 2.054 0 01-1.269.365l-.008.023c.184.102.339.241.464.42.128.17.219.362.272.578.063.21.082.437.057.68a2.156 2.156 0 01-.195.742 3.124 3.124 0 01-.724.978c-.286.247-.607.43-.965.551a3.257 3.257 0 01-1.12.178 4.165 4.165 0 01-1.157-.197 3.826 3.826 0 01-1.037-.496 2.378 2.378 0 01-.673-.744 2.113 2.113 0 01-.25-.935c-.002-.347.093-.719.288-1.116.113-.25.265-.47.455-.66.19-.19.395-.347.615-.467.222-.13.45-.221.684-.277.244-.062.474-.08.691-.054l.008-.024c-.362-.252-.571-.574-.63-.964-.05-.388.027-.796.231-1.224.159-.34.367-.615.625-.828.26-.22.544-.381.853-.483a2.95 2.95 0 011.007-.149c.362.002.72.06 1.074.171zm-.557 1.147c-.361-.114-.695-.098-1 .047a1.375 1.375 0 00-.655.676c-.151.315-.176.614-.075.897.103.275.332.468.685.58.158.05.316.07.475.059a1.57 1.57 0 00.479-.121c.153-.073.291-.168.414-.285.131-.114.235-.25.311-.407.138-.303.148-.594.029-.873-.112-.278-.332-.468-.663-.573zm-1.567 3.28a1.76 1.76 0 00-.584-.08 1.614 1.614 0 00-.57.118 1.823 1.823 0 00-.499.309 1.375 1.375 0 00-.341.463c-.19.381-.21.733-.062 1.057.159.318.443.542.852.671.409.13.798.114 1.169-.046.378-.157.661-.422.848-.795.083-.182.122-.36.117-.534a1.008 1.008 0 00-.114-.503 1.137 1.137 0 00-.327-.402 1.454 1.454 0 00-.489-.258zm4.108.947c.303-.63.614-1.15.934-1.56.322-.417.639-.75.95-.997a3.51 3.51 0 01.938-.547c.306-.12.592-.189.858-.209.276-.025.525-.02.747.016.222.035.412.078.569.128.158.05.334.122.528.218.195.096.378.228.55.394.183.162.337.37.464.627.129.248.205.553.229.916.035.356-.003.777-.113 1.261-.107.476-.312 1.03-.615 1.66-.303.631-.615 1.155-.937 1.572a5.412 5.412 0 01-.951.997 3.457 3.457 0 01-1.795.756c-.266.02-.51.012-.732-.023a4.042 4.042 0 01-.569-.128 3.778 3.778 0 01-.528-.219 2.578 2.578 0 01-.565-.386 2.576 2.576 0 01-.464-.626 2.473 2.473 0 01-.23-.916c-.024-.362.014-.782.113-1.261.11-.484.316-1.042.619-1.673zm1.416.447a9.053 9.053 0 00-.37.882 4.101 4.101 0 00-.211.997 1.89 1.89 0 00.132.898c.113.27.347.46.701.572.354.112.682.099.985-.04.311-.134.594-.33.848-.588a4.39 4.39 0 00.659-.855c.188-.321.343-.605.464-.852s.243-.538.365-.87c.125-.342.201-.677.227-1.006a1.903 1.903 0 00-.131-.898c-.114-.269-.348-.46-.702-.571a1.381 1.381 0 00-.997.035 2.82 2.82 0 00-.836.592 4.75 4.75 0 00-.674.864c-.186.313-.339.593-.46.84zm52.466 19.12l-4.002 1.023.005.035c.102.016.223.061.362.136.147.08.279.166.397.256.308.235.535.502.681.8.152.303.23.616.232.94a2.21 2.21 0 01-.216.955 2.914 2.914 0 01-.613.886 3.6 3.6 0 01-1.075.735 3.28 3.28 0 01-1.207.277 3.509 3.509 0 01-1.216-.18 3.758 3.758 0 01-1.13-.599 3.62 3.62 0 01-.864-.907 2.44 2.44 0 01-.348-1.012 2.275 2.275 0 01.158-1.063c.146-.355.386-.696.718-1.023.333-.327.69-.578 1.073-.753a8.842 8.842 0 011.297-.457l4.312-1.145 1.436 1.096zm-6.864 2.185a1.464 1.464 0 00-.353.524c-.069.185-.1.375-.091.568.013.186.067.367.161.543.094.176.23.33.407.466.177.135.369.23.576.284.214.06.429.084.646.072.221-.018.431-.07.632-.155a1.74 1.74 0 00.559-.367 1.39 1.39 0 00.437-1.082 1.258 1.258 0 00-.154-.553 1.443 1.443 0 00-.406-.466 1.72 1.72 0 00-.587-.292 1.904 1.904 0 00-.643-.055c-.216.012-.43.061-.641.148a1.765 1.765 0 00-.543.365zm6.672 6.443l-2.96-2.258 1.05-1.05 6.761-1.765 1.337 1.02-4.05 4.004 1.012.773-.957.95-1.013-.773-1.277 1.265-1.18-.9 1.277-1.266zm3.497-3.462l-.02-.015-4.28 1.185 1.76 1.343 2.54-2.513zm1.282 3.841c.499-.49.968-.874 1.407-1.15a5.776 5.776 0 011.232-.616 3.506 3.506 0 011.068-.197c.329-.009.621.022.878.094.268.07.501.16.698.268.197.109.361.213.492.313s.272.228.422.385c.151.156.279.342.384.557.117.214.192.462.224.746.037.278.006.591-.094.94-.089.347-.267.73-.534 1.148-.263.412-.643.863-1.142 1.354-.499.49-.97.878-1.415 1.16a5.4 5.4 0 01-1.232.617 3.473 3.473 0 01-1.068.196 3.543 3.543 0 01-.877-.094 3.15 3.15 0 01-.681-.27 4.04 4.04 0 01-.492-.313 3.767 3.767 0 01-.422-.385 2.567 2.567 0 01-.402-.555 2.583 2.583 0 01-.223-.746 2.459 2.459 0 01.094-.94c.1-.348.278-.731.534-1.148.267-.418.65-.873 1.149-1.364zm1.18.9a9.197 9.197 0 00-.646.705 4.059 4.059 0 00-.537.867c-.136.3-.196.597-.18.889.015.292.171.55.466.776.295.225.608.324.94.297.338-.022.67-.11.996-.266.327-.156.63-.35.911-.582.285-.238.527-.453.725-.644.198-.192.411-.423.639-.695.233-.279.418-.568.554-.869.136-.3.196-.597.18-.89-.015-.291-.171-.55-.466-.775a1.38 1.38 0 00-.95-.304 2.81 2.81 0 00-.987.273 4.78 4.78 0 00-.927.584c-.281.232-.52.444-.718.635zm36.459 27.872l3.821 4.561-1.162.732-8.586 1.27-1.119-1.337 8.587-1.191-2.749-3.28 1.208-.755zm.931 7.93c.595-.368 1.137-.64 1.626-.813a5.768 5.768 0 011.338-.33c.407-.04.769-.025 1.085.043.322.064.6.159.835.285.246.127.454.265.622.415.168.15.305.287.411.414.106.126.215.282.327.468.113.185.197.395.252.628.067.234.085.493.055.777-.025.28-.125.578-.299.896-.163.32-.421.653-.774 1.003-.346.344-.817.7-1.411 1.07-.595.368-1.14.642-1.636.82a5.39 5.39 0 01-1.337.33 3.474 3.474 0 01-1.085-.043 3.544 3.544 0 01-.835-.284 3.17 3.17 0 01-.605-.414 4.062 4.062 0 01-.411-.414 3.742 3.742 0 01-.327-.468 2.594 2.594 0 01-.27-.63 2.625 2.625 0 01-.054-.777c.031-.284.131-.582.299-.895.174-.319.432-.653.773-1.003.353-.35.827-.709 1.421-1.078zm.953 1.138a9.141 9.141 0 00-.785.546 4.084 4.084 0 00-.714.727 1.89 1.89 0 00-.372.827c-.049.289.046.575.284.86.238.284.522.45.852.496.335.053.678.04 1.031-.04.352-.08.691-.203 1.016-.367.331-.17.614-.326.849-.47.235-.143.494-.322.776-.537a3.75 3.75 0 00.731-.725c.199-.264.323-.54.372-.828.049-.288-.046-.575-.284-.86a1.381 1.381 0 00-.86-.506 2.811 2.811 0 00-1.023.05 4.77 4.77 0 00-1.033.366 12.24 12.24 0 00-.84.461zm3.748 4.474c.594-.37 1.136-.64 1.626-.813a5.756 5.756 0 011.337-.33 3.5 3.5 0 011.085.043c.322.063.601.158.835.284.247.128.454.266.622.415.169.15.306.288.412.414.105.127.215.283.327.468.112.186.196.395.252.628.067.234.085.494.054.778a2.303 2.303 0 01-.299.895c-.162.32-.42.654-.773 1.003-.346.344-.817.7-1.412 1.07a8.847 8.847 0 01-1.635.821c-.484.18-.93.29-1.337.33a3.47 3.47 0 01-1.085-.043 3.548 3.548 0 01-.836-.285 3.16 3.16 0 01-.604-.413 4.073 4.073 0 01-.411-.414 3.857 3.857 0 01-.328-.468 2.591 2.591 0 01-.269-.63 2.56 2.56 0 01-.054-.777 2.47 2.47 0 01.298-.896c.175-.318.433-.652.774-1.003.353-.35.826-.708 1.421-1.077zm.953 1.138a9.325 9.325 0 00-.786.545 4.084 4.084 0 00-.714.727c-.199.264-.323.54-.371.828-.049.288.045.575.284.859.238.284.522.45.851.497.335.053.679.04 1.031-.041.353-.08.691-.202 1.016-.367.331-.17.614-.326.849-.47.235-.142.494-.321.777-.536a3.81 3.81 0 00.731-.726c.199-.264.323-.54.372-.828.048-.288-.046-.575-.284-.859a1.383 1.383 0 00-.86-.506 2.807 2.807 0 00-1.023.05c-.353.08-.697.202-1.033.365-.325.165-.605.319-.84.462zm32.713 157.146l2.787 3.038.026-.008a1.351 1.351 0 01-.048-.396c.001-.159.014-.311.038-.458.062-.382.191-.712.387-.989.195-.269.434-.481.718-.635.284-.154.6-.244.947-.271.347-.027.703.019 1.068.137.438.13.824.327 1.157.591.331.271.598.582.8.933.209.352.351.738.424 1.16.073.421.074.851.002 1.291a3.389 3.389 0 01-.406 1.174 2.272 2.272 0 01-.719.798 2.168 2.168 0 01-1.01.348c-.383.046-.798-.001-1.243-.141a3.699 3.699 0 01-1.179-.606 10.25 10.25 0 01-1.003-.916l-3.037-3.267.291-1.783zm5.156 5.03a1.396 1.396 0 001.16-.123c.167-.098.305-.23.416-.396.111-.165.184-.358.22-.578a1.718 1.718 0 00-.272-1.248 1.954 1.954 0 00-.433-.497 1.784 1.784 0 00-.576-.307 1.469 1.469 0 00-.628-.065 1.435 1.435 0 00-.545.186c-.158.1-.292.228-.401.386a1.443 1.443 0 00-.22.578c-.036.22-.03.438.018.655.048.217.128.418.24.603.119.187.264.348.434.485.177.146.372.253.587.321zm-1.885 2.096c.668.209 1.227.443 1.678.701a5.78 5.78 0 011.123.798c.296.282.521.565.675.85.162.285.272.558.33.818.064.27.095.517.092.742a4.066 4.066 0 01-.046.582 3.704 3.704 0 01-.14.553 2.145 2.145 0 01-.312.601 2.007 2.007 0 01-.553.549c-.227.163-.519.283-.874.358-.348.085-.769.108-1.264.069-.487-.038-1.064-.162-1.732-.371-.667-.21-1.231-.444-1.69-.703a5.353 5.353 0 01-1.122-.798 3.462 3.462 0 01-.676-.85 3.559 3.559 0 01-.33-.818 3.162 3.162 0 01-.081-.728c.003-.225.018-.419.045-.582.026-.163.073-.347.141-.553.067-.207.167-.412.301-.615.14-.195.325-.378.553-.549.236-.162.527-.281.874-.358a4.718 4.718 0 011.264-.069c.495.039 1.076.163 1.744.373zm-.24 1.465a9.132 9.132 0 00-.926-.24 4.104 4.104 0 00-1.017-.066 1.9 1.9 0 00-.869.259c-.25.151-.406.41-.466.776-.059.366 0 .69.18.97.179.288.413.539.704.754.291.215.604.391.941.53.345.14.648.252.91.337.262.085.566.164.914.237a3.79 3.79 0 001.027.081 1.9 1.9 0 00.869-.259c.251-.151.406-.41.466-.776.06-.366.001-.694-.178-.982a2.815 2.815 0 00-.706-.742 4.724 4.724 0 00-.951-.544 12.04 12.04 0 00-.898-.335zm-.942 5.759c.667.209 1.227.443 1.677.701.459.259.834.524 1.123.797.297.283.522.566.676.851.162.285.272.558.33.818.064.27.095.517.091.742a3.938 3.938 0 01-.045.582 3.628 3.628 0 01-.141.553 2.168 2.168 0 01-.311.601 2.02 2.02 0 01-.553.549c-.228.163-.519.282-.874.358-.348.085-.77.108-1.264.069-.487-.038-1.064-.162-1.732-.371-.668-.21-1.231-.444-1.69-.703a5.388 5.388 0 01-1.123-.798 3.48 3.48 0 01-.675-.85 3.559 3.559 0 01-.33-.818 3.108 3.108 0 01-.081-.728c.003-.225.018-.419.045-.582.026-.163.073-.347.14-.553.067-.207.168-.412.302-.615.14-.195.324-.378.553-.549.235-.162.527-.282.873-.358a4.726 4.726 0 011.265-.069c.495.039 1.076.163 1.744.373zm-.24 1.465a9.132 9.132 0 00-.926-.24 4.104 4.104 0 00-1.017-.066 1.9 1.9 0 00-.869.259c-.251.151-.406.41-.466.776-.06.366 0 .689.18.97.178.288.413.539.704.754.29.215.604.391.941.53.344.14.648.252.91.337.262.085.566.164.913.237a3.8 3.8 0 001.028.081 1.9 1.9 0 00.869-.259c.251-.151.406-.41.466-.776.06-.367 0-.694-.178-.982a2.815 2.815 0 00-.706-.742 4.78 4.78 0 00-.951-.544 12.04 12.04 0 00-.898-.335z" fill="#221F1F"/><defs><linearGradient id="paint0_linear" x1="224.661" y1="25.608" x2="224.661" y2="320.843" gradientUnits="userSpaceOnUse"><stop stop-color="#C4C4C4" stop-opacity="0"/><stop offset="1" stop-color="#EAECF4"/></linearGradient><linearGradient id="paint1_linear" x1="56.213" y1="280.63" x2="407.485" y2="178.915" gradientUnits="userSpaceOnUse"><stop stop-color="#E24465"/><stop offset=".552" stop-color="#ECB260"/><stop offset=".995" stop-color="#89C142"/></linearGradient><filter id="filter0_di" x="9.002" y="5.369" width="430.318" height="430.318" filterUnits="userSpaceOnUse" color-interpolation-filters="sRGB"><feFlood flood-opacity="0" result="BackgroundImageFix"/><feColorMatrix in="SourceAlpha" values="0 0 0 0 0 0 0 0 0 0 0 0 0 0 0 0 0 0 127 0"/><feOffset dy="4.948"/><feGaussianBlur stdDeviation="12.369"/><feColorMatrix values="0 0 0 0 0 0 0 0 0 0 0 0 0 0 0 0 0 0 0.25 0"/><feBlend in2="BackgroundImageFix" result="effect1_dropShadow"/><feBlend in="SourceGraphic" in2="effect1_dropShadow" result="shape"/><feColorMatrix in="SourceAlpha" values="0 0 0 0 0 0 0 0 0 0 0 0 0 0 0 0 0 0 127 0" result="hardAlpha"/><feOffset dy="4.948"/><feGaussianBlur stdDeviation="2.474"/><feComposite in2="hardAlpha" operator="arithmetic" k2="-1" k3="1"/><feColorMatrix values="0 0 0 0 0 0 0 0 0 0 0 0 0 0 0 0 0 0 0.19 0"/><feBlend mode="multiply" in2="shape" result="effect2_innerShadow"/></filter><filter id="filter1_d" x="87.063" y="83.43" width="276.562" height="276.562" filterUnits="userSpaceOnUse" color-interpolation-filters="sRGB"><feFlood flood-opacity="0" result="BackgroundImageFix"/><feColorMatrix in="SourceAlpha" values="0 0 0 0 0 0 0 0 0 0 0 0 0 0 0 0 0 0 127 0"/><feOffset dy="4.948"/><feGaussianBlur stdDeviation="12.369"/><feColorMatrix values="0 0 0 0 0 0 0 0 0 0 0 0 0 0 0 0 0 0 0.25 0"/><feBlend in2="BackgroundImageFix" result="effect1_dropShadow"/><feBlend in="SourceGraphic" in2="effect1_dropShadow" result="shape"/></filter></defs></svg>