<svg width="640" height="465" fill="none" xmlns="http://www.w3.org/2000/svg"><g clip-path="url(#clip0)"><path d="M181.671 318.13s69.165-18.194 68.506-36.915c-1.186-5.142-9.617-6.46-9.617-6.46s-19.761-2.637-8.959-8.965c10.803-6.329 40.182-4.878 40.182-4.878s-30.301 4.878-16.863 7.514c8.299.66 16.467 1.846 24.635 3.428 0 0 28.061 5.933 32.013 20.435 2.372 8.438 2.635 17.272.659 25.709l-130.556.132z" fill="url(#paint0_linear)"/><path opacity=".12" d="M357.942 259.857H158.353c0-55.109 44.661-99.803 99.729-99.803 55.199 0 99.728 44.694 99.86 99.803z" fill="url(#paint1_linear)"/><path opacity=".08" d="M180.354 42.716c.791-5.8-7.114-10.679-12.91-11.206-2.767-.264-5.665.264-8.3-.791-5.796-2.11-8.036-10.02-13.701-12.525-4.216-1.846-8.958-.264-13.042 1.978-4.084 2.241-8.037 4.878-12.648 5.273-3.952.264-8.299-1.318-11.725.791-2.634 1.582-3.952 4.615-6.323 6.592-2.371 1.978-5.402 2.242-8.3 2.373-2.898.132-5.796.264-8.431 1.45-2.635 1.187-4.611 4.22-4.084 7.252l99.464-1.187z" fill="url(#paint2_linear)"/><path opacity=".08" d="M462.281 93.607c1.581-11.866-14.228-21.754-26.085-22.677-5.665-.527-11.593.396-16.863-1.582-11.593-4.35-16.336-20.303-27.666-25.445-8.431-3.823-18.312-.395-26.48 3.955-8.168 4.351-16.336 9.888-25.558 10.548-8.036.527-16.731-2.637-23.713 1.582-5.27 3.032-7.905 9.492-12.779 13.184-4.874 3.691-10.803 4.482-16.731 4.746-5.928.263-11.857.395-17.127 3.032-5.269 2.637-9.748 8.438-8.563 14.634l201.565-1.977z" fill="url(#paint3_linear)"/><path opacity=".6" d="M507.337 259.857c0 .132-100.519.264-224.488.264s-224.487-.132-224.487-.264 100.518-.263 224.487-.263 224.488.131 224.488.263z" fill="#263238"/><path d="M350.432 335.269h-93.273v52.736h93.273v-52.736z" fill="url(#paint4_linear)"/><path d="M312.096 285.434c-.396 1.318-.659 2.636-.923 3.955l-1.976-6.46c-.395-1.451-1.185-3.56-1.976-3.56-.79 0 0 2.769.132 4.087.132 1.318.263 3.032.263 3.032a79.053 79.053 0 00-2.766-7.119c-.659-1.055-1.845 0-1.318 1.318 0 0-1.054-1.054-1.317.132-.264 1.187 1.713 6.724 1.317 6.856-.395.132-2.239-4.351-2.898-4.483-.395-.131-.659.528-.263 1.714.395 1.187 3.557 9.756 4.215 10.811.132.264.264.528.527.659 0 0 .659 23.072 3.294 28.478 2.371 4.614 27.534 26.763 27.534 26.763l11.856-7.251-30.168-24.918-4.611-24.39c.263-.264.395-.659.395-.923.395-1.45.263-10.02.263-10.02s-.922-.395-1.58 1.319z" fill="#FFBE9D"/><path d="M347.798 344.366c-1.318-1.318-3.03-1.977-4.875-1.714-1.712.264-3.557.66-5.269 1.187-3.426.923-7.114 1.318-10.671 1.186-2.504 0-4.875-.659-7.114-1.845-2.108-1.319-3.689-3.296-3.294-5.669 4.084-.132 8.168 0 12.252.395l2.635-.791c1.185-.527 5.006-2.109 5.006-2.109l8.563 5.932 2.767 3.428z" fill="#FFBE9D"/><path d="M309.724 358.078c-.131-.132-.263-.264-.263-.528a6.398 6.398 0 01-.527-1.45c-.922-3.296-.395-6.855 1.318-9.756.263-.395.527-.791.922-1.187l.395-.395s-.395.659-1.054 1.714c-1.581 2.9-2.108 6.328-1.318 9.492.264 1.319.659 1.978.527 2.11zm-9.485 8.569s-.659-.923-1.845-2.241c-3.03-3.56-6.85-6.328-11.198-8.306-1.581-.659-2.634-1.055-2.634-1.186.263 0 .526.131.658.131.659.264 1.318.396 1.976.66 4.348 1.845 8.168 4.746 11.198 8.306.396.527.923 1.186 1.318 1.713.395.396.527.66.527.923zm-7.773 4.087c-.132 0 0-1.846-.395-3.955s-1.318-3.823-1.186-3.823c.791 1.054 1.318 2.373 1.581 3.691.264 1.45.264 2.769 0 4.087z" fill="#263238"/><path opacity=".3" d="M311.306 345.025c-1.581.396-2.899 1.582-3.69 3.033-.658 1.45-1.054 3.164-.922 4.746a5.955 5.955 0 001.713 4.614c.264.132.527.396.791.132.263-.263.131-.527 0-.791-1.186-3.955-.396-8.306 2.108-11.734zm-14.624 25.973c0-1.978-.659-3.955-1.713-5.669-1.186-1.846-2.503-3.56-4.084-5.01-.79-.791-1.844-1.45-2.898-1.978-.922-.659-1.976-.923-3.03-.923a12.37 12.37 0 016.323 6.592 18.803 18.803 0 011.186 6.592l4.216.396z" fill="#000"/><path d="M309.856 371.657l1.186-1.582c.922-1.45 1.185-3.296.922-5.01-.527-2.636-2.371-4.746-4.875-5.537-1.449-.395-3.03-.527-4.479-.132-1.712.396-3.425.264-5.006-.132-.79-.263-1.581-.791-2.108-1.582-.527-.659-.79-1.582-.659-2.505 0-.923.527-1.714 1.186-2.109.659-.396 1.581-.527 2.371-.132.791.264 1.318 1.055 1.318 1.846 0 .791-.264 1.45-.791 1.977-.527.396-1.185.66-1.844.66-1.186.131-2.371-.264-3.162-1.055-.395-.264-.658-.659-.922-1.187-.395-.659-.659-1.45-.79-2.241 0-.527 0-.923.131-1.45 0-.132.132-.264.264-.528-.132.66-.264 1.319-.264 1.846.132.791.264 1.45.659 2.11.264.395.527.791.922 1.054.396.396.791.66 1.318.791 1.054.396 2.371.264 3.293-.527a1.717 1.717 0 00.659-1.714c0-.659-.527-1.186-1.054-1.45-.659-.264-1.449-.132-1.976.132a2.102 2.102 0 00-1.054 1.846c-.132.791.132 1.582.659 2.241s1.185 1.186 1.976 1.45c1.581.396 3.293.527 4.874.132.791-.132 1.581-.132 2.372-.132.79 0 1.58.132 2.239.396 3.821 1.186 5.929 5.405 4.743 9.228-.264.66-.527 1.187-.791 1.714-.395.659-.79 1.187-1.317 1.582zm1.318-26.236s-.396-.132-.659-.659c-.527-.659-.791-1.319-.923-2.11-.131-.791 0-1.582.264-2.373.263-.527.395-.791.527-.791-.922 1.978-.659 4.219.791 5.933zm15.545 17.139l.395-1.582c.132-1.45 0-3.032-.395-4.483-.659-2.109-2.108-3.955-4.084-5.141a6.476 6.476 0 00-3.821-.791 7.487 7.487 0 00-3.82 1.45c-.527.395-.922 1.055-1.186 1.714-.263.659-.131 1.318.264 1.846.395.395 1.054.659 1.712.659.659-.132 1.186-.396 1.45-.923.658-1.055.658-2.241-.132-3.296-.527-.791-1.449-1.45-2.372-1.846a6.542 6.542 0 00-4.479 0c-.527.264-1.054.396-1.581.659l.396-.263c.395-.264.79-.396 1.054-.528 1.449-.659 3.161-.659 4.61-.132 1.054.264 1.977 1.055 2.635 1.846.396.527.527 1.055.659 1.714 0 .659-.132 1.318-.527 1.846a2.584 2.584 0 01-1.713 1.186c-.79.132-1.449-.131-1.976-.659-.527-.659-.658-1.45-.395-2.241.264-.791.659-1.319 1.317-1.846 1.186-.923 2.635-1.582 4.084-1.582 1.318-.132 2.767.264 3.953.923 1.976 1.186 3.557 3.032 4.215 5.274.396 1.45.527 3.032.264 4.614-.132.395-.132.791-.264 1.187 0 0-.131.131-.263.395z" fill="#FAFAFA"/><path opacity=".3" d="M337.258 347.531c-1.844-1.451-4.347-1.451-6.719-1.319a8.587 8.587 0 00-5.401 1.45c-1.054.923-1.713 1.978-2.108 3.296-.395 1.319-.659 2.637-.659 3.956 0 .791 0 1.45-.131 2.241-.396 1.055-1.054 2.109-1.845 2.9-1.712 2.505-2.635 7.12.132 9.888 0 0 3.03-.527 4.216-.791" fill="#000"/><path d="M316.443 338.697c0 .131-.527 0-.79-.396-.264-.395-.264-.79-.132-.79s.263.263.527.659c.263.395.395.395.395.527zm17.522 13.316c-.395-.132-.659-.396-.922-.659a7.193 7.193 0 01-2.372-4.878c0-.396 0-.791.132-1.187.131 1.318.395 2.505.922 3.692.659 1.054 1.318 2.109 2.24 3.032zm-41.631 15.557l.264.264c.263.263.395.659.527.922.131.528.263 1.055.263 1.714v2.242c0 .922.132 1.714.527 2.505.264.395.527.791.922 1.054.396.264.923.396 1.45.528h1.58c.527-.132 1.054-.396 1.318-.791.263-.528.395-1.055.132-1.582-.264-.528-.527-1.055-1.054-1.451-.923-.791-2.108-1.054-3.294-.659-.922.527-1.713 1.318-2.371 2.373a7.11 7.11 0 00-1.054 2.769c-.132.923 0 1.846.395 2.637.527 1.186 1.317 2.241 2.108 3.164.395.395.659.659.922 1.055l-.263-.264-.791-.791c-.922-.923-1.712-1.978-2.239-3.164-.396-.791-.527-1.846-.396-2.769.132-1.055.527-2.109 1.054-2.9.527-1.055 1.449-1.846 2.503-2.505a2.894 2.894 0 011.845-.264c.658.132 1.185.395 1.712.923.527.395.923.923 1.186 1.582.264.659.264 1.318-.132 1.977-.395.528-.922.791-1.581.923a3.75 3.75 0 01-1.712 0c-.527 0-1.054-.263-1.581-.527-.395-.264-.791-.791-1.054-1.187-.395-.791-.527-1.714-.527-2.636v-2.242c0-.527-.132-1.054-.263-1.714-.132-.263-.264-.659-.396-1.186zm-2.898-10.283s.263.131.395.395c.527.791.527 1.846.132 2.769-.132.263-.395.527-.395.395.527-1.186.395-2.505-.132-3.559zm-9.09.791s-.264-.132-.527-.66c-.659-1.186-.527-2.636.132-3.691.263-.396.527-.528.527-.528-.923 1.451-1.054 3.296-.132 4.879z" fill="#FAFAFA"/><path d="M176.402 330.259s44.792-9.36 48.349-10.679c3.689-.923 7.641-.263 10.934 1.714 0 0 44.265 33.224 40.972 32.96-4.743-.264-14.492 18.853-14.492 18.853s-34.648-34.937-39.259-35.201c-4.611-.264-46.504-5.142-46.504-5.142v-2.505z" fill="#EB996E"/><path d="M158.09 326.832c3.293-3.296 15.414 4.614 21.078 2.768 2.372 2.374 2.372 3.824 2.372 3.824s-9.617 5.933-11.462 4.087c-1.844-1.846-3.03-5.669-6.718-6.988-1.845-.923-3.689-2.109-5.27-3.691z" fill="#EB996E"/><path d="M172.054 330.523l3.03-.264 47.822-3.823s6.851-1.45 11.198 2.241c1.449 1.187 42.553 25.577 42.553 25.577s15.545 11.47 9.617 23.995c-5.138 10.943-15.677 7.515-22.791 3.824-6.061-3.165-24.373-21.49-32.672-32.301l-.396-.659c-.922-1.319-4.611-6.329-8.563-6.065-4.479.395-18.707.264-26.085-1.318-7.377-1.583-25.03-6.988-25.03-6.988l1.317-4.219z" fill="#FFBE9D"/><path d="M153.083 324.195c3.689-2.769 14.36 7.119 20.42 6.196 0 4.615-3.03 4.483-3.03 4.483s-5.665 3.823-7.114 1.714c-1.449-2.11-1.976-6.065-5.533-8.043-1.844-1.054-3.425-2.505-4.743-4.35z" fill="#FFBE9D"/><path d="M375.068 323.931c-2.503-1.582-5.665-.527-8.563-.264-3.557.264-6.983-.659-9.881-2.768-6.323-4.483-8.695-13.58-15.677-16.744-4.348-1.846-9.354-1.186-13.043 1.846-3.688 3.032-5.664 7.515-5.401 12.261.264 4.746 2.503 9.097 6.06 12.129l27.402 12.657c6.983.659 15.282-2.637 18.839-8.833.923-1.714 2.899-3.56 2.899-5.538-.132-1.845-1.054-3.559-2.635-4.746z" fill="#2B3672"/><path opacity=".3" d="M348.72 314.571c-.527-4.483-3.557-8.175-7.773-9.625-4.216-1.318-8.827-.395-12.252 2.505-3.293 2.901-5.006 7.251-4.611 11.734.395 3.164 1.449 6.065 3.294 8.57a31.236 31.236 0 006.587 6.592" fill="#000"/><path d="M338.839 319.448c-1.054 2.242-2.371 4.615-4.743 5.406-1.712.527-3.952.132-5.006 1.582-1.054 1.45 0 3.823-1.054 5.405a4.206 4.206 0 01-3.162 1.451c-1.185-.132-2.371 0-3.557.263-1.185.396-1.976 1.582-1.712 2.769.395 1.187 1.844 1.45 3.162 1.714 1.976.395 3.952.264 5.928-.264 1.317-.527 2.371-1.318 3.425-2.241l6.455-5.142" fill="#263238"/><path d="M355.833 311.406c-2.371-.923-5.137-.264-6.982 1.582-.79 1.714-2.635 2.769-4.479 2.373-3.689.264-6.324 3.428-6.06 7.12.132 2.109 1.317 4.087 3.162 5.141" fill="#263238"/><path opacity=".3" d="M356.492 342.652c5.665-.131 11.066-2.9 14.623-7.383 1.054-1.318 1.845-2.768 2.108-4.35.132-.396.132-.791-.131-1.187-.396-.659-1.318-.659-2.108-.527-.659.395-1.449.527-2.24.395-.659 2.637-2.108 5.01-4.347 6.724-2.108 1.714-4.48 3.032-6.851 4.219" fill="#000"/><path d="M345.031 317.603c6.85-12.13 20.025-4.878 22.659 2.373 2.503 6.855 1.449 11.338-1.581 15.03-3.03 3.823-7.245 6.46-11.856 7.778-2.372.527-5.138.659-6.719-1.186" fill="#263238"/><path d="M327.904 338.433c4.875-3.691 7.641-5.801 7.641-5.801s-2.371-4.746 2.503-9.624c3.294-3.032 6.983-5.669 10.803-8.042 3.425-2.242 8.959-3.033 11.066.527l4.875 12.129c.659 1.055.395 2.505-.659 3.165l-21.605 14.898" fill="#FFBE9D"/><path d="M352.54 324.986c0 .132.791.396 1.318 1.187s.527 1.582.658 1.582c.132 0 .132-.132.132-.528 0-.527-.132-.923-.527-1.318-.263-.396-.659-.659-1.186-.791-.131-.264-.395-.264-.395-.132z" fill="#263238"/><path d="M335.545 332.632c1.844 2.637 4.348 4.615 7.246 5.933 0 0-5.138.923-8.695-4.878l1.449-1.055z" fill="#EB996E"/><path d="M353.594 323.931c-.132.264.527.923 1.054 1.846s.791 1.846 1.054 1.846c.264 0 .264-.264.264-.791-.132-1.187-.659-2.242-1.581-2.769-.528-.132-.791-.264-.791-.132zm-4.084-7.514c0 .263.527.659.923 1.318.395.659.658 1.186 1.054 1.186.395 0 .263-.263.263-.527-.132-.923-.659-1.714-1.581-1.977-.395-.132-.527 0-.659 0z" fill="#263238"/><path d="M356.229 335.137c.132 0 3.426 1.978.132 4.351-1.318 1.055-3.162.923-4.348-.264a2.877 2.877 0 01-.659-1.054l4.875-3.033z" fill="#FFBE9D"/><path d="M353.462 338.302v.263c0 .132.132.396.264.396.659.263 1.317.132 1.713-.264.263-.264.527-.527.658-.791.132-.264.264-.527.132-.659 0-.132-.263-.264-.395-.264s-.132.132-.264.132c-.131 0 0-.132.132-.132h.264c.131 0 .263.132.263.264.132.264.132.659 0 .923-.132.395-.395.659-.659.923-.527.527-1.317.527-1.976.263-.132-.132-.263-.395-.263-.527l.131-.527z" fill="#EB996E"/><path d="M360.708 313.252c-2.24-1.186-6.587.791-7.905 3.032-1.317 2.242-.79 4.878.264 7.252.922 2.241 2.503 4.35 4.347 5.932-1.317 1.055-1.844 2.769-1.449 4.483.791 1.978 3.557 2.637 5.665 1.714a11.119 11.119 0 004.611-4.615" fill="#263238"/><path d="M359.391 336.456c-.131 0-.263 0-.395-.132-.263-.132-.659-.132-1.054-.395-.527-.132-1.054-.396-1.581-.791-.659-.396-1.054-1.055-1.318-1.714-.131-.659-.131-1.451.132-2.11.264-.527.527-1.054 1.054-1.45.264-.264.527-.527.922-.791.132-.132.264-.132.396-.132-.396.264-.791.659-1.186 1.055-.395.395-.659.923-.922 1.45-.527 1.319-.132 2.769 1.054 3.692.395.395.922.659 1.449.791.922.263 1.581.527 1.449.527z" fill="#263238"/><path d="M367.691 330.919c.132-.132.263-.396.395-.528.264-.527.395-1.054.527-1.714 0-.922-.132-1.714-.395-2.505-.395-1.054-.922-1.977-1.449-2.768-1.054-1.714-1.845-3.428-2.504-5.274-.263-.659-.395-1.318-.527-1.714 0-.132-.132-.395-.132-.527v-.132.132l.132.527c.132.396.264.923.527 1.714.659 1.846 1.45 3.56 2.504 5.274.527.923 1.054 1.846 1.449 2.9.263.791.395 1.714.395 2.637 0 .659-.263 1.187-.527 1.714-.132 0-.132.132-.395.264z" fill="#455A64"/><path d="M357.02 325.909c-1.054-1.055-2.767-.923-3.689.131l-.132.132a1.822 1.822 0 00-.395.528c-.264.659-.527 1.45-1.186 1.714-.659.263-1.186-.132-1.713-.264-2.107-.659-4.347.395-5.006 2.505-.131.264-.131.659-.263.923 0 .791.132 1.845-.395 2.505-.527.659-1.581.659-2.504.791-2.503.395-4.083 2.637-3.688 5.141v.132c.131.396.131.791.131 1.187-.131.395-.526.659-.922.923-1.844 1.45-2.898 3.823-2.503 6.064 0 .923.659 1.714 1.449 2.11.791.132 1.713-.132 2.372-.659 2.503-1.846 4.084-4.615 6.719-6.197.79-.395 1.58-.791 2.239-1.318.659-.791 1.186-1.714 1.581-2.637 2.24-4.878 5.138-9.361 8.695-13.316" fill="#263238"/><path d="M327.509 306.133c6.06-5.142 15.019-4.351 20.157 1.714l1.185 1.582a3.183 3.183 0 001.318 1.318c.922.527 1.976-.132 2.898-.527 5.928-2.505 12.779.263 15.282 6.196.791 1.846 1.054 3.692.922 5.669l4.611 1.055v.527l.395 5.933c-2.634.791-10.407-.527-11.856-1.186-3.03-1.055-5.797-2.637-8.3-4.615-4.347-3.691-5.533-13.975-10.012-17.403-4.48-3.427-11.725-3.032-16.6-.263z" fill="#2B3672"/><path opacity=".4" d="M368.085 327.755c-.263 0-.658.131-.922 0-.79 0-1.713-.132-2.503-.264-5.533-.923-10.276-4.615-12.515-9.756a8.37 8.37 0 01-.791-2.373c-.132-.264-.132-.528-.132-.923l1.186 3.164c2.371 5.01 6.851 8.569 12.252 9.624 2.24.528 3.425.528 3.425.528z" fill="#FAFBFC"/><path opacity=".4" d="M369.271 323.008c-.263.132-.658.132-.922.132a7.96 7.96 0 01-2.503 0c-5.665-.396-10.671-3.824-13.174-8.965-.395-.791-.659-1.582-.922-2.373-.132-.264-.132-.66-.132-.923.395 1.054.79 2.109 1.317 3.164 2.503 5.01 7.51 8.306 13.043 8.833 2.108.264 3.425 0 3.293.132z" fill="#FAFBFC"/><path opacity=".4" d="M369.008 319.844c-.264.132-.527.132-.659.132a4.98 4.98 0 01-1.976 0c-2.24-.264-4.216-1.187-5.928-2.637-1.713-1.45-3.162-3.164-4.216-5.01-.395-.659-.659-1.318-.922-1.714-.132-.263-.264-.395-.264-.659 0 0 .527.923 1.449 2.241 1.186 1.846 2.503 3.428 4.216 4.878 1.713 1.319 3.689 2.242 5.797 2.637.658 0 1.581 0 2.503.132zm-.527-2.637c-.659 0-1.186-.264-1.713-.527-2.766-1.055-5.006-3.033-6.587-5.538-.395-.527-.659-1.054-.79-1.582 1.054 1.714 2.371 3.296 3.952 4.615 1.581 1.318 3.293 2.373 5.138 3.032z" fill="#FAFBFC"/><path d="M341.342 343.443s-21.21 16.085-19.761 23.732c0 0 .922 2.9 7.114 2.241 6.192-.659 13.174-7.383 16.599-10.152 5.007-4.219 12.121-18.326 12.121-18.326l-16.073 2.505z" fill="#FFBE9D"/><path d="M355.175 322.613l-2.767 9.492-20.156 20.831 14.755.527 13.701-16.48 5.27-8.833s1.581-3.56-1.449-3.032c0 0-.659-2.11-1.845-1.978-.527 0-1.185.132-1.712.264 0 0-.396-1.319-1.45-1.055-.527.132-1.053.527-1.185 1.055 0 0-.132-1.582-1.581-1.45-1.449.131-1.581.659-1.581.659z" fill="#FFBE9D"/><path d="M281.926 353.331l-.131 1.582-7.641-.527-18.049-10.284-23.582-12.393-9.88-1.45-36.756 2.11-8.958-.396-.923-3.164 47.559-10.02s7.114-2.241 12.252 1.582c5.138 3.823 46.109 32.96 46.109 32.96z" fill="#1F2C49"/><path d="M281.927 353.331l3.162 16.876.131 9.756-11.856 5.801-13.175-3.692-13.437-12.524-19.366-21.358s-1.449-3.165-6.324-3.296c-4.874-.132-17.39 1.582-43.079-5.67-2.767-1.318-7.114-3.032-7.114-3.032V329.6l49.798-3.428s7.904-1.45 12.12 1.187c4.216 2.637 38.6 23.204 38.6 23.204l10.54 2.768z" fill="#2B3672"/><path d="M428.818 275.546s-57.966 64.865-88.398 73.698c-7.773 2.901-58.888 28.346-123.31 6.461-61.523-25.577-137.143-85.565-138.46-98.88-.396-.264-1.976 4.878-1.976 4.878l1.976 2.768c7.509 10.02 74.434 97.694 146.628 122.084 49.271 9.625 80.362.791 110.268-6.328 48.744-15.689 85.236-86.092 92.745-106" fill="#0D2333"/><path d="M344.372 362.428c-1.054 1.187-2.371 2.242-3.557 3.296-3.425 2.769-7.378 5.01-11.462 6.724-6.06 2.505-12.383 4.087-18.97 4.878-7.905.923-15.941 1.187-23.977.923-14.624-.527-28.983-2.768-42.948-6.855-5.401-1.582-9.617-3.165-12.515-4.219l-3.294-1.319-.922-.395-.264-.132.264.132.922.395 3.425 1.319c2.899 1.054 7.246 2.505 12.516 4.087 13.964 3.955 28.456 6.196 42.947 6.724 8.037.263 15.941 0 23.977-.923 6.456-.791 12.911-2.373 18.839-4.747 4.084-1.713 7.905-3.955 11.462-6.592 1.186-.922 2.108-1.713 2.766-2.373l.659-.659c0-.132.132-.264.132-.264z" fill="#263238"/><path d="M325.138 374.03l-.395.132-1.318.527c-1.185.396-2.898.923-5.006 1.583a164.862 164.862 0 01-33.858 6.328c-2.239.132-3.952.264-5.269.264h-1.976.527l1.449-.132c1.185 0 3.03-.132 5.269-.396 4.348-.395 10.408-1.055 17.127-2.241 6.719-1.187 12.515-2.769 16.731-3.955 2.108-.66 3.821-1.187 5.006-1.451l1.318-.395c.131-.132.263-.132.395-.264zm86.422-77.654c.132 0-11.461 13.58-25.821 30.192a4833.645 4833.645 0 01-26.085 29.927s11.462-13.579 25.822-30.191c14.359-16.612 25.953-29.928 26.084-29.928zm-186.809 69.48h-.264l-.527-.263-2.108-1.055c-1.844-.923-4.479-2.11-7.772-3.824-6.587-3.164-15.546-7.778-25.426-13.052-9.881-5.273-18.576-10.283-24.899-14.107-3.162-1.845-5.665-3.427-7.378-4.482l-1.976-1.319-.527-.395-.132-.132.132.132.527.264 1.976 1.186 7.509 4.351a910.945 910.945 0 0024.899 13.975c9.749 5.274 18.839 9.888 25.295 13.184l7.772 3.823 2.108 1.055.527.264.264.395z" fill="#263238"/><path d="M460.964 164.8h-39.259v213.053h39.259V164.8z" fill="#0D2333"/><path opacity=".15" d="M427.765 373.635h-1.054c-.396 0-.659-.264-.659-.66V171.656c0-.396.263-.66.659-.66h1.054c.395 0 .658.264.658.66v201.319c0 .396-.395.66-.658.66zm7.509 0h-1.054c-.395 0-.659-.264-.659-.66V171.656c0-.396.264-.66.659-.66h1.054c.395 0 .659.264.659.66v201.319c0 .396-.395.66-.659.66zm6.982 0h-1.054c-.395 0-.659-.264-.659-.66V171.656c0-.396.264-.66.659-.66h1.054c.395 0 .659.264.659.66v201.319c0 .396-.264.66-.659.66zm7.115 0h-1.054c-.396 0-.659-.264-.659-.66V171.656c0-.396.263-.66.659-.66h1.054c.395 0 .658.264.658.66v201.319c0 .396-.263.66-.658.66zm6.718 0h-1.054c-.395 0-.659-.264-.659-.66V171.656c0-.396.264-.66.659-.66h1.054c.395 0 .659.264.659.66v201.319c0 .396-.264.66-.659.66z" fill="#89C142"/><path d="M405.764 377.854h69.296a2.643 2.643 0 012.635 2.636v14.107a2.643 2.643 0 01-2.635 2.637h-69.296a2.643 2.643 0 01-2.634-2.637V380.49a2.642 2.642 0 012.634-2.636z" fill="#0D2333"/><path d="M400.494 393.147h80.362a2.643 2.643 0 012.635 2.637v15.425a2.644 2.644 0 01-2.635 2.637h-80.362a2.644 2.644 0 01-2.635-2.637v-15.425a2.643 2.643 0 012.635-2.637zM475.587 164.8h-66.793a2.644 2.644 0 01-2.635-2.637v-14.107a2.644 2.644 0 012.635-2.637h66.793a2.644 2.644 0 012.635 2.637v14.107a2.644 2.644 0 01-2.635 2.637z" fill="#0D2333"/><path d="M403.129 128.939h77.596a2.644 2.644 0 012.635 2.637v15.425a2.643 2.643 0 01-2.635 2.637h-77.596a2.643 2.643 0 01-2.635-2.637v-15.425c0-1.582 1.186-2.637 2.635-2.637zm163.096 35.992h-39.259v213.054h39.259V164.931z" fill="#0D2333"/><path opacity=".1" d="M533.026 373.766h-1.054c-.395 0-.659-.263-.659-.659v-201.32c0-.395.264-.659.659-.659h1.054c.395 0 .659.264.659.659v201.32c0 .396-.264.659-.659.659zm7.509 0h-1.054c-.395 0-.658-.263-.658-.659v-201.32c0-.395.263-.659.658-.659h1.054c.396 0 .659.264.659.659v201.32c0 .396-.263.659-.659.659zm6.983 0h-1.055c-.395 0-.658-.263-.658-.659v-201.32c0-.395.263-.659.658-.659h1.055c.395 0 .658.264.658.659v201.32c.132.396-.263.659-.658.659zm7.114 0h-1.054c-.396 0-.659-.263-.659-.659v-201.32c0-.395.263-.659.659-.659h1.054c.395 0 .659.264.659.659v201.32c0 .396-.264.659-.659.659zm6.85 0h-1.054c-.395 0-.659-.263-.659-.659v-201.32c0-.395.264-.659.659-.659h1.054c.395 0 .659.264.659.659v201.32c0 .396-.264.659-.659.659z" fill="#fff"/><path d="M511.158 377.985h69.296a2.643 2.643 0 012.634 2.637v14.107a2.643 2.643 0 01-2.634 2.637h-69.296a2.643 2.643 0 01-2.635-2.637v-14.107a2.643 2.643 0 012.635-2.637z" fill="#0D2333"/><path d="M505.887 393.278h80.362a2.644 2.644 0 012.635 2.637v15.425a2.643 2.643 0 01-2.635 2.637h-80.362a2.643 2.643 0 01-2.635-2.637v-15.425a2.644 2.644 0 012.635-2.637zm74.961-228.346h-66.793a2.644 2.644 0 01-2.635-2.637v-14.107a2.644 2.644 0 012.635-2.637h66.793a2.644 2.644 0 012.635 2.637v14.107a2.644 2.644 0 01-2.635 2.637z" fill="#0D2333"/><path d="M508.39 129.071h77.596a2.644 2.644 0 012.635 2.637v15.425a2.644 2.644 0 01-2.635 2.637H508.39a2.643 2.643 0 01-2.634-2.637v-15.425a2.643 2.643 0 012.634-2.637z" fill="#0D2333"/><path d="M488.102 363.879c2.767-1.319 5.797-1.714 8.827-1.055 1.581.132 3.162.791 4.347 1.977 1.186 1.187 1.186 3.165 0 4.351a3.962 3.962 0 01-2.766.659c-2.372 0-4.875-.395-6.719.923-1.054.791-1.713 2.11-3.03 2.505-1.318.264-2.635-.263-3.294-1.45-.658-1.187-.79-2.505-.395-3.823.264-1.714 1.449-3.296 3.03-4.087zm-6.06-11.866c1.581 2.373 4.743 1.582 6.324.132 1.317-1.582 2.239-3.428 2.634-5.406 1.318-4.482 2.635-9.228 1.581-13.711-.263-1.45-.79-2.637-1.712-3.691a4.104 4.104 0 00-3.821-1.319c-1.581.659-2.766 1.846-3.293 3.428-2.108 4.351-3.294 9.229-3.294 14.107-.132 2.109.395 4.351 1.581 6.46zm-4.479 3.296c1.713-2.242 2.24-5.142 1.317-7.779-.922-2.637-2.503-4.878-4.61-6.724a25.106 25.106 0 00-8.3-4.878c-1.186-.527-2.503-.659-3.689-.659-1.317.132-2.503.791-3.162 1.846-.922 1.714 0 3.691.922 5.273 1.581 2.901 3.426 5.67 5.402 8.306 1.449 2.242 3.557 3.956 5.928 5.142 2.503.923 5.006.791 6.324-.923" fill="#0C202D"/><path d="M481.91 387.214c.132-.395.132-.659.132-1.055.132-.791.132-1.714.264-2.9.131-1.45.395-2.769.658-4.219.396-1.714.922-3.428 1.581-5.01.659-1.582 1.449-3.164 2.503-4.483.922-1.054 1.976-1.977 3.294-2.636.79-.396 1.712-.66 2.766-.791.396 0 .659-.132 1.054-.132h-1.054c-.922.132-1.976.395-2.898.791a11.33 11.33 0 00-3.425 2.637c-1.054 1.45-1.976 2.9-2.635 4.614-.659 1.714-1.186 3.296-1.581 5.142-.263 1.45-.527 2.9-.527 4.35-.132 1.187-.132 2.242-.132 2.901-.131.132 0 .396 0 .791z" fill="#122E3F"/><path d="M482.042 384.973v-7.119c.132-4.351.527-9.097 1.186-15.689.659-6.197 1.581-13.448 2.635-18.194.264-1.055.395-1.978.659-2.901.263-.923.395-1.582.527-2.109l.264-1.319c0-.131.131-.263.131-.527-.131.132-.131.264-.131.527-.132.396-.264.791-.396 1.319-.131.527-.395 1.318-.527 2.109-.132.791-.395 1.846-.659 2.901a180.465 180.465 0 00-2.767 16.875c-.658 6.592-1.054 12.657-1.054 17.008 0 2.241 0 3.955.132 5.141 0 .528 0 1.055.132 1.451-.132.131-.132.395-.132.527z" fill="#122E3F"/><path d="M482.174 373.371v-1.45c0-.923-.263-2.373-.395-3.955-.395-1.978-.791-3.824-1.318-5.801a59.998 59.998 0 00-2.371-6.856 37.899 37.899 0 00-7.114-11.075c-.527-.527-1.054-1.054-1.713-1.582-.263-.263-.527-.395-.658-.659l-.659-.395a814.27 814.27 0 00-1.186-.791 54.213 54.213 0 014.084 3.691c2.899 3.296 5.27 6.988 6.983 11.075a68.266 68.266 0 012.371 6.724 39.402 39.402 0 011.317 5.801c.264 1.713.527 3.032.659 3.955-.263.263-.132.791 0 1.318z" fill="#122E3F"/><path d="M470.844 393.806l1.186 15.953h20.552l1.185-15.953h-22.923zm25.295-6.328h-27.271v6.328h27.271v-6.328z" fill="#102D38"/><path d="M468.868 409.231v1.714h26.875v-1.714h-26.875zm2.635 4.747l-1.317-3.032h24.503l-1.449 3.032h-21.737z" fill="#102D38"/><path d="M493.372 399.08l-.132.131-.263.396-1.186 1.582v-.132l-2.898-4.087h.132l-2.899 4.087-.132.132-.131-.132-3.426-4.087h.264l-.264.264-3.03 3.823-.131.132-.132-.132-2.898-4.087h.131l-3.557 4.087v.132-.132c-.527-.791-.79-1.45-1.054-1.846l-.263-.527-.132-.132.132.132.263.527 1.186 1.846 3.557-4.087.132-.132.132.132 2.898 4.087h-.264l3.03-3.823.264-.264.132-.132.131.132 3.426 4.087h-.264l2.899-4.087.131-.132.132.132 2.898 4.087h-.263c.527-.659.922-1.186 1.185-1.45l.264-.527zm.659-5.406c0 .132-5.138.132-11.462.132-6.323 0-11.461 0-11.461-.132s5.138-.132 11.461-.132c6.324 0 11.462.132 11.462.132zm1.053 17.403c0 .132-5.533.132-12.515.132s-12.516 0-12.516-.132c0-.131 5.534-.131 12.516-.131s12.515.131 12.515.131zM365.847 71.194a12.167 12.167 0 013.952-2.373c5.534-1.582 5.402-1.582 253.471-70.27l-.527 71.589-256.896 1.054z" fill="#0D2333"/><path d="M370.325 69.875h257.423c5.797 0 10.54 4.746 10.54 10.547v38.234c0 5.801-4.743 10.547-10.54 10.547H370.325c-5.796 0-10.539-4.746-10.539-10.547V80.422c0-5.8 4.611-10.547 10.539-10.547z" fill="#0D2333"/><path opacity=".05" d="M378.757 74.885h253.339c4.347 0 7.772 3.56 7.772 7.778v30.587c0 4.351-3.557 7.779-7.772 7.779H378.757c-4.348 0-7.773-3.56-7.773-7.779V82.663c0-4.35 3.425-7.778 7.773-7.778z" fill="#fff"/><path opacity=".05" d="M380.074 75.017L632.622 5.01v69.875H380.864l-.79.132z" fill="#fff"/><path opacity=".25" d="M519.457 121.029h-138.46s-9.881-1.714-9.881-9.756-.132-25.05-.132-25.05-.659-8.57 9.09-11.338L521.038 35.86v85.037l-1.581.132z" stroke="#89C142" stroke-width=".791" stroke-miterlimit="10"/><path d="M176.929 259.857c7.509 0 13.569-6.065 13.569-13.58s-6.06-13.579-13.569-13.579c-7.51 0-13.57 6.064-13.57 13.579 0 7.515 6.06 13.58 13.57 13.58z" fill="url(#paint5_linear)"/><path d="M177.456 246.673h-.79v40.607h.79v-40.607z" fill="url(#paint6_linear)"/><path d="M180.094 251.956l-3.261 3.263.559.559 3.261-3.263-.559-.559zm-4.42 13.269l-.559.559 1.77 1.771.559-.559-1.77-1.771zm-.421-15.596l-.559.559 2.049 2.051.559-.559-2.049-2.051z" fill="#B3B6B7"/><g opacity=".7" fill="#000"><path opacity=".7" d="M176.929 259.857c7.509 0 13.569-6.065 13.569-13.58s-6.06-13.579-13.569-13.579c-7.51 0-13.57 6.064-13.57 13.579 0 7.515 6.06 13.58 13.57 13.58z"/><path opacity=".7" d="M177.324 246.541h-.791v40.739h.791v-40.739z"/><path opacity=".7" d="M179.944 251.864l-3.26 3.263.559.559 3.26-3.263-.559-.559zm-4.459 13.269l-.559.56 1.769 1.77.559-.559-1.769-1.771zm-.205-15.613l-.559.559 2.049 2.051.559-.56-2.049-2.05z"/></g><path d="M77.86 253.924c43.079 0 77.858-34.938 77.858-77.917 0-42.98-34.779-78.05-77.859-78.05C34.912 97.957 0 132.895 0 175.875c0 43.111 34.911 78.049 77.86 78.049z" fill="#89C142"/><path d="M80.758 180.357H76.41v232.962h4.348V180.357z" fill="url(#paint7_linear)"/><path d="M95.483 208.95L77.13 227.315l3.074 3.076 18.352-18.365-3.074-3.076zm-26.426 55.199l-2.739 3.379 11.256 9.135 2.738-3.379-11.255-9.135zm-.515-68.558l-3.075 3.076 11.645 11.653 3.074-3.076-11.644-11.653z" fill="#B3B6B7"/><g opacity=".2" fill="#070707"><path opacity=".2" d="M77.86 253.792c42.947 0 77.858-34.937 77.858-77.917 0-42.98-34.779-77.918-77.859-77.918C34.78 97.957 0 132.763 0 175.875c0 42.98 34.911 77.917 77.86 77.917z"/><path opacity=".2" d="M80.758 180.226H76.41v232.961h4.348V180.226z"/><path opacity=".2" d="M95.454 208.829l-18.351 18.366 3.074 3.076 18.351-18.365-3.074-3.077zm-26.421 55.207l-2.739 3.379 11.256 9.135 2.739-3.379-11.256-9.135zm-.512-68.565l-3.074 3.076L77.091 210.2l3.074-3.076-11.644-11.653z"/></g><path d="M365.714 244.3c11.725 0 21.211-9.493 21.211-21.358 0-11.866-9.486-21.227-21.343-21.227-11.725 0-21.21 9.493-21.21 21.358 0 11.866 9.617 21.227 21.342 21.227z" fill="url(#paint8_linear)"/><path d="M366.505 223.733h-1.186v63.678h1.186v-63.678z" fill="url(#paint9_linear)"/><path d="M370.519 231.925l-5.031 5.035.838.839 5.031-5.035-.838-.839zm-6.762 20.814l-.839.839 2.795 2.797.838-.84-2.794-2.796zm-.62-24.4l-.839.839 3.168 3.17.838-.84-3.167-3.169z" fill="#B3B6B7"/><g opacity=".5" fill="#000"><path opacity=".5" d="M365.714 244.3c11.725 0 21.211-9.493 21.211-21.358 0-11.866-9.486-21.227-21.343-21.227-11.725 0-21.21 9.493-21.21 21.358 0 11.866 9.617 21.227 21.342 21.227z"/><path opacity=".5" d="M366.505 223.469h-1.186v63.81h1.186v-63.81z"/><path opacity=".5" d="M370.286 231.871l-5.031 5.035.839.839 5.03-5.035-.838-.839zm-6.697 20.735l-.838.839 2.795 2.797.838-.839-2.795-2.797zm-.583-24.413l-.839.839 3.168 3.17.838-.839-3.167-3.17z"/></g><path d="M76.147 260.647l2.503-.395c.396 0 .79-.132 1.186-.264.395-.131.79-.263 1.186-.527a2.866 2.866 0 01-1.054.659c-.395.132-.79.264-1.186.264-.922.263-1.713.263-2.635.263zm0 1.583l2.503.132h1.318c.395 0 .79 0 1.186-.264-.395.264-.79.395-1.186.395H78.65c-.79 0-1.713-.131-2.503-.263zm0-3.824h2.503c.396 0 .79 0 1.318-.131.395 0 .79-.132 1.186-.396-.264.264-.79.527-1.186.527-.395.132-.922.132-1.318.132-.922 0-1.713 0-2.503-.132z" fill="#89C142"/><path d="M76.28 258.934l2.239 1.45c.395.263.79.527 1.186.659.395.264.79.396 1.317.527-.395 0-.922-.131-1.317-.263-.395-.132-.79-.396-1.186-.66-.79-.527-1.581-1.054-2.24-1.713zm-.133 1.187c0 .131-.132.395-.132.527-.131.527-.395.923-.658 1.318-.66.923-1.582 1.846-2.636 2.505l-.658.396c-.132 0-.264.132-.396.132h-.527c-.132-.132-.132-.264-.132-.396s.132-.264.132-.395c.132-.264.264-.396.396-.66.263-.395.527-.791.79-1.054a8.458 8.458 0 011.713-1.319c.395-.263.922-.395 1.45-.527.131 0 .395-.132.526-.132-.658.264-1.186.527-1.844.791-.923.659-1.845 1.45-2.504 2.373l-.395.659c-.132.264-.132.396 0 .528s.395 0 .527-.132l.659-.396c.395-.263.659-.527 1.054-.791.527-.527 1.054-1.054 1.45-1.582.658-.527.922-1.186 1.185-1.845z" fill="#89C142"/><path d="M76.543 260.516h-.396c-.395 0-.79-.132-1.186-.132-1.317-.263-2.503-.923-3.557-1.845l-.264-.132.132-.132c.395-.264.79-.264 1.186-.264.395 0 .659.132 1.054.264.527.264 1.054.527 1.581.923.264.263.659.527.79.923.132.132.132.263.264.395l-1.186-1.186c-.527-.396-1.054-.66-1.58-.923a2.479 2.479 0 00-1.055-.264c-.395 0-.659 0-1.054.132v-.132c1.054.791 2.24 1.45 3.426 1.846 1.186.395 1.845.395 1.845.527z" fill="#89C142"/><path d="M461.622 258.275a5.866 5.866 0 01-1.449 1.055c-.922.659-2.371 1.45-4.084 2.373a95.549 95.549 0 01-14.228 5.933c-4.874 1.582-9.881 2.636-14.887 3.296-1.976.263-3.557.395-4.611.395a3.75 3.75 0 01-1.712 0c0-.132 2.371-.395 6.191-1.055 10.013-1.714 19.893-4.878 29.115-9.228 3.426-1.714 5.665-2.901 5.665-2.769zm0 10.152a5.837 5.837 0 01-1.449 1.054c-.922.659-2.371 1.45-4.216 2.505-4.611 2.505-9.353 4.615-14.228 6.592-4.874 1.846-9.748 3.296-14.755 4.351-1.976.395-3.425.659-4.611.791-.527.132-1.054.132-1.581.132 1.977-.659 4.084-1.319 6.192-1.714 3.821-1.055 8.959-2.505 14.624-4.746 5.665-2.242 10.671-4.483 14.228-6.197 1.844-.923 3.82-1.846 5.796-2.768z" fill="#6F9933"/><path d="M461.622 252.606c-.263.527-.527.923-.922 1.45-.659.923-1.713 2.241-3.03 3.691-8.3 8.966-18.049 16.481-28.851 22.15-2.24 1.186-4.216 2.241-5.533 2.9-.659.396-1.45.659-2.108.923.658-.396 1.317-.791 1.976-1.055 1.317-.659 3.162-1.714 5.27-2.9a123.273 123.273 0 0028.719-22.018c1.449-1.582 2.635-2.768 3.294-3.691a4.11 4.11 0 011.185-1.45z" fill="#6F9933"/><path d="M461.095 282.138c-.659-.132-1.186-.396-1.712-.528-1.054-.395-2.635-1.054-4.611-1.845-3.821-1.582-8.959-3.955-14.492-6.724-5.533-2.769-10.276-5.537-13.569-7.647-1.713-1.055-3.03-1.846-3.821-2.505-.527-.264-.922-.659-1.317-1.055l1.581.792 4.084 2.373c3.425 1.977 8.168 4.746 13.569 7.515 5.401 2.768 10.539 5.141 14.228 6.855l4.479 1.978 1.581.791zm-39.391-21.094s0 .395-.658.659c-.395.132-.659.263-1.054.132-.527 0-.922-.264-1.318-.396-1.185-.395-2.239-1.055-3.293-1.582-.659-.395-1.186-.791-1.845-1.187a4.006 4.006 0 00-.922-.659c-.395-.395-.527-.791-.395-1.318.132-.396.527-.791 1.054-.791.395 0 .79 0 1.186.132.658.263 1.317.527 1.976.923 1.054.659 2.108 1.318 2.898 2.241.527.527 1.186 1.186 1.581 1.846.132.263.395.527.395.791-.658-.923-1.449-1.714-2.239-2.505-.923-.791-1.845-1.582-2.899-2.11-.658-.395-1.317-.659-1.976-.923-.263-.131-.658-.131-1.054-.131-.263 0-.527.263-.658.527 0 .264 0 .659.263.791.264.264.527.527.922.659.527.396 1.186.791 1.713 1.187 1.054.659 2.108 1.186 3.162 1.714.658.395 1.449.527 2.239.395.527 0 .791-.264.922-.395z" fill="#6F9933"/><path d="M420.783 261.703c-.263-.132-.395-.396-.658-.659-.527-.66-.923-1.319-1.318-2.11-.922-1.714-1.449-3.56-1.713-5.537v-1.187c0-.395.132-.923.395-1.186.132-.132.396-.264.659-.264.264 0 .527.132.659.396.264.395.395.659.527 1.054.264.659.527 1.319.659 1.978.395 1.186.659 2.373.922 3.56.264 1.054.264 1.845.395 2.373v.923l-.658-3.296c-.264-1.055-.527-2.242-.923-3.428-.263-.66-.395-1.319-.658-1.978a6.467 6.467 0 00-.396-.923c-.131-.132-.263-.263-.527-.263l-.131.131c-.264.264-.264.66-.396.923v1.055c0 .659.132 1.45.264 2.109.263 1.187.659 2.374 1.186 3.428.922 1.978 1.844 2.901 1.712 2.901z" fill="#6F9933"/><path opacity=".4" d="M261.507 315.757l-.264-.395 2.108-1.714.264.395-2.108 1.714zm4.216-3.296l-.264-.395c.659-.66 1.449-1.187 1.976-1.714l.264.395c-.527.528-1.318 1.055-1.976 1.714zm4.084-3.56l-.264-.395c.659-.659 1.318-1.318 1.976-1.846l.396.264c-.791.659-1.45 1.318-2.108 1.977zm3.82-3.823l-.395-.264a13.287 13.287 0 001.713-2.109l.395.264c-.527.659-1.054 1.318-1.713 2.109zm3.294-4.351l-.396-.263a61.004 61.004 0 001.45-2.242l.395.264c-.395.791-.922 1.45-1.449 2.241zm2.635-4.746l-.396-.132c.264-.791.527-1.714.791-2.505l.395.132c-.132.791-.395 1.714-.79 2.505zm.658-5.274c0-.922-.132-1.713-.395-2.636l.395-.132c.264.923.395 1.714.395 2.637l-.395.131zm-1.317-5.009c-.395-.791-.922-1.451-1.449-2.11l.395-.264c.527.66 1.054 1.451 1.581 2.242l-.527.132zm-3.294-4.087c-.658-.528-1.317-1.187-2.108-1.714l.264-.396a13.33 13.33 0 012.108 1.714l-.264.396zm-4.347-3.033c-.791-.395-1.581-.923-2.372-1.318l.264-.396c.79.396 1.581.791 2.371 1.319l-.263.395zm-4.875-2.505c-.79-.395-1.581-.659-2.503-1.054l.132-.396c.922.396 1.713.659 2.503 1.055l-.132.395zm-5.006-1.977l-2.503-.923.132-.396c.922.264 1.713.659 2.503.923l-.132.396zm-5.138-1.714l-2.635-.791.132-.396 2.635.791-.132.396zm-5.138-1.582l-2.634-.791.131-.396 2.635.791-.132.396zm-5.138-1.582c-.922-.264-1.712-.66-2.503-1.055l.264-.396c.79.396 1.581.659 2.503 1.055l-.264.396zm-3.425-3.033l-.263-.263c.79-.528 1.581-1.055 2.503-1.187l.132.395c-.923.132-1.713.528-2.372 1.055zm4.875-1.846l-.132-.395c.79-.132 1.713-.396 2.635-.659l.131.395c-.922.264-1.844.528-2.634.659zm5.269-1.186l-.131-.396 2.634-.527.132.396-2.635.527zm5.27-.923v-.396l2.635-.395v.395l-2.635.396z" fill="url(#paint10_linear)"/><path d="M79.572 412.659s-9.617-2.505-6.06-3.032c2.371-.264 4.742-.527 7.114-.527 0 0-7.641-9.097-3.557-7.647 4.084 1.45 6.587 9.624 6.587 9.624s-.527-15.293 1.976-12.129c2.503 3.164.527 12.129.527 12.129s11.198-8.174 8.168-4.614c-3.03 3.559-4.611 5.537-4.611 5.537s12.252-3.032 8.168-1.055c-4.084 1.978-12.647 3.033-12.647 3.033l-5.665-1.319z" fill="#0B1D28"/><path d="M67.979 413.187s-7.51-1.978-4.743-2.373a39.002 39.002 0 015.533-.396s-5.928-7.119-2.766-5.933C69.165 405.672 71.14 412 71.14 412s-.396-11.865 1.58-9.492c1.977 2.373.396 9.492.396 9.492s8.695-6.328 6.323-3.559c-2.371 2.768-3.557 4.35-3.557 4.35s9.486-2.373 6.324-.791c-3.162 1.582-9.88 2.374-9.88 2.374l-4.348-1.187zm97.752 21.358s-7.509-1.978-4.743-2.373a39.011 39.011 0 015.533-.396s-5.928-7.119-2.766-5.932c3.162 1.186 5.138 7.515 5.138 7.515s-.395-11.866 1.581-9.493c1.976 2.373.395 9.493.395 9.493s8.695-6.329 6.323-3.56c-2.371 2.768-3.557 4.351-3.557 4.351s9.486-2.374 6.324-.791c-3.162 1.582-9.881 2.373-9.881 2.373l-4.347-1.187z" fill="#0D2333"/><path d="M166.258 434.545s-7.509-1.978-4.743-2.373a39.015 39.015 0 015.534-.396s-5.929-7.119-2.767-5.932c3.162 1.186 5.138 7.515 5.138 7.515s-.395-11.866 1.581-9.493c1.976 2.373.395 9.493.395 9.493s8.695-6.329 6.324-3.56c-2.372 2.768-3.557 4.351-3.557 4.351s9.485-2.374 6.323-.791c-3.162 1.582-9.88 2.373-9.88 2.373l-4.348-1.187zm165.467 11.338s-7.509-1.978-4.743-2.373a39.015 39.015 0 015.534-.396s-5.929-7.119-2.767-5.932c3.162 1.186 5.138 7.514 5.138 7.514s-.395-11.865 1.581-9.492c1.976 2.373.395 9.492.395 9.492s8.695-6.328 6.324-3.559c-2.372 2.768-3.557 4.35-3.557 4.35s9.485-2.373 6.323-.791c-3.162 1.582-9.88 2.374-9.88 2.374l-4.348-1.187zm18.707.659s-3.82-1.055-2.371-1.187c.922-.131 1.844-.263 2.767-.131 0 0-3.03-3.56-1.318-3.033 1.713.528 2.635 3.824 2.635 3.824s-.263-5.933.79-4.747c1.054 1.187.264 4.747.264 4.747s4.347-3.164 3.162-1.846c-1.186 1.318-1.713 2.109-1.713 2.109s4.743-1.186 3.162-.395a16.32 16.32 0 01-5.006 1.186l-2.372-.527zm-249.65 7.647s-4.874-1.319-3.03-1.582c1.186-.132 2.372-.264 3.557-.264 0 0-3.82-4.614-1.844-3.823 1.976.791 3.293 4.878 3.293 4.878s-.263-7.779 1.054-6.197c1.318 1.582.264 6.197.264 6.197s5.665-4.087 4.084-2.373c-1.581 1.714-2.372 2.768-2.372 2.768s6.192-1.582 4.084-.527a27.191 27.191 0 01-6.455 1.582l-2.635-.659zm141.359 3.296s-8.959-2.373-5.665-2.769c2.24-.263 4.347-.527 6.587-.527 0 0-7.114-8.438-3.294-7.119 3.821 1.318 6.061 8.965 6.061 8.965s-.527-14.107 1.844-11.339c2.371 2.769.527 11.339.527 11.339s10.408-7.515 7.509-4.219c-2.898 3.296-4.216 5.142-4.216 5.142s11.33-2.769 7.51-.923c-3.821 1.846-11.725 2.768-11.725 2.768l-5.138-1.318zm12.252-40.079s-4.479-1.187-2.767-1.451c1.054-.132 2.24-.263 3.294-.263 0 0-3.557-4.219-1.713-3.56 1.845.659 3.03 4.482 3.03 4.482s-.263-7.119.922-5.669c1.186 1.451.264 5.669.264 5.669s5.138-3.823 3.82-2.109a71.24 71.24 0 01-2.107 2.637s5.664-1.45 3.82-.528c-1.844.66-3.82 1.187-5.928 1.451l-2.635-.659zm90.111-8.834s-4.479-1.187-2.767-1.45c1.054-.132 2.24-.264 3.294-.264 0 0-3.557-4.219-1.713-3.56 1.845.66 3.03 4.483 3.03 4.483s-.263-7.119.923-5.669c1.185 1.45.263 5.669.263 5.669s5.138-3.823 3.821-2.109a71.014 71.014 0 01-2.108 2.636s5.665-1.45 3.82-.527c-1.844.659-3.82 1.187-5.928 1.45l-2.635-.659z" fill="#0D2333"/><path opacity=".4" d="M292.467 430.985c0 .791-1.713 1.319-3.689 1.319s-3.821-.66-3.821-1.319c0-.659 1.713-1.318 3.821-1.318s3.689.527 3.689 1.318zm-127.263-24.522c0 1.187-2.635 1.978-5.797 1.978-3.161 0-5.796-.923-5.796-1.978s2.635-1.978 5.796-1.978c3.162 0 5.797.923 5.797 1.978zm-3.557 49.572c0 .791-1.713 1.318-3.952 1.318-2.24 0-3.953-.659-3.953-1.318s1.713-1.319 3.953-1.319c2.239 0 3.952.528 3.952 1.319zm237.793 7.383c0 .922-1.976 1.582-4.479 1.582s-4.479-.66-4.479-1.582c0-.923 1.976-1.583 4.479-1.583s4.479.66 4.479 1.583zm73.644-27.555c0 1.319-3.03 2.505-6.983 2.505-3.952 0-6.982-1.055-6.982-2.505s3.03-2.373 6.982-2.373c3.953 0 6.983 1.055 6.983 2.373z" fill="#0D2333"/></g><defs><linearGradient id="paint0_linear" x1="247.677" y1="318.091" x2="247.677" y2="260.669" gradientUnits="userSpaceOnUse"><stop stop-color="#050505" stop-opacity="0"/><stop offset=".1" stop-color="#060A0C" stop-opacity=".16"/><stop offset=".43" stop-color="#0A1822" stop-opacity=".62"/><stop offset=".74" stop-color="#0C202F" stop-opacity=".9"/><stop offset="1" stop-color="#0D2333"/></linearGradient><linearGradient id="paint1_linear" x1="258.154" y1="280.108" x2="258.154" y2="160.938" gradientUnits="userSpaceOnUse"><stop stop-color="#0D2333" stop-opacity=".1"/><stop offset="1" stop-color="#00AEEF"/></linearGradient><linearGradient id="paint2_linear" x1="130.597" y1="17.384" x2="130.597" y2="50.331" gradientUnits="userSpaceOnUse"><stop stop-color="#00AEEF"/><stop offset=".1" stop-color="#00A5E2"/><stop offset=".28" stop-color="#018CC1"/><stop offset=".52" stop-color="#02658B"/><stop offset=".81" stop-color="#032F41"/><stop offset="1" stop-color="#040A0F"/></linearGradient><linearGradient id="paint3_linear" x1="361.464" y1="42.295" x2="361.464" y2="109.085" gradientUnits="userSpaceOnUse"><stop stop-color="#00AEEF"/><stop offset=".1" stop-color="#00A5E2"/><stop offset=".28" stop-color="#018CC1"/><stop offset=".52" stop-color="#02658B"/><stop offset=".81" stop-color="#032F41"/><stop offset="1" stop-color="#040A0F"/></linearGradient><linearGradient id="paint4_linear" x1="263.074" y1="361.626" x2="349.183" y2="361.626" gradientUnits="userSpaceOnUse"><stop stop-color="#7BB22D"/><stop offset="1" stop-color="#32D845"/></linearGradient><linearGradient id="paint5_linear" x1="167.315" y1="236.604" x2="186.557" y2="255.831" gradientUnits="userSpaceOnUse"><stop stop-color="#56AB2F"/><stop offset="1" stop-color="#93D642"/></linearGradient><linearGradient id="paint6_linear" x1="177.061" y1="287.306" x2="177.061" y2="246.646" gradientUnits="userSpaceOnUse"><stop stop-color="#B3B6B7" stop-opacity=".1"/><stop offset=".06" stop-color="#B3B6B7" stop-opacity=".29"/><stop offset=".14" stop-color="#B3B6B7" stop-opacity=".48"/><stop offset=".22" stop-color="#B3B6B7" stop-opacity=".64"/><stop offset=".31" stop-color="#B3B6B7" stop-opacity=".77"/><stop offset=".41" stop-color="#B3B6B7" stop-opacity=".87"/><stop offset=".53" stop-color="#B3B6B7" stop-opacity=".95"/><stop offset=".68" stop-color="#B3B6B7" stop-opacity=".99"/><stop offset="1" stop-color="#B3B6B7"/></linearGradient><linearGradient id="paint7_linear" x1="78.617" y1="413.266" x2="78.617" y2="180.357" gradientUnits="userSpaceOnUse"><stop stop-color="#231F20" stop-opacity=".1"/><stop offset=".02" stop-color="#2C292A" stop-opacity=".16"/><stop offset=".08" stop-color="#4C4A4B" stop-opacity=".35"/><stop offset=".15" stop-color="#686768" stop-opacity=".53"/><stop offset=".23" stop-color="#7F8081" stop-opacity=".68"/><stop offset=".32" stop-color="#929495" stop-opacity=".8"/><stop offset=".41" stop-color="#A1A3A4" stop-opacity=".89"/><stop offset=".53" stop-color="#ABAEAF" stop-opacity=".95"/><stop offset=".68" stop-color="#B1B4B5" stop-opacity=".99"/><stop offset="1" stop-color="#B3B6B7"/></linearGradient><linearGradient id="paint8_linear" x1="350.67" y1="207.938" x2="380.781" y2="238.028" gradientUnits="userSpaceOnUse"><stop stop-color="#56AB2F"/><stop offset="1" stop-color="#93D642"/></linearGradient><linearGradient id="paint9_linear" x1="365.925" y1="287.319" x2="365.925" y2="223.68" gradientUnits="userSpaceOnUse"><stop stop-color="#B3B6B7" stop-opacity=".1"/><stop offset=".06" stop-color="#B3B6B7" stop-opacity=".29"/><stop offset=".14" stop-color="#B3B6B7" stop-opacity=".48"/><stop offset=".22" stop-color="#B3B6B7" stop-opacity=".64"/><stop offset=".31" stop-color="#B3B6B7" stop-opacity=".77"/><stop offset=".41" stop-color="#B3B6B7" stop-opacity=".87"/><stop offset=".53" stop-color="#B3B6B7" stop-opacity=".95"/><stop offset=".68" stop-color="#B3B6B7" stop-opacity=".99"/><stop offset="1" stop-color="#B3B6B7"/></linearGradient><linearGradient id="paint10_linear" x1="261.448" y1="315.783" x2="261.448" y2="261.399" gradientUnits="userSpaceOnUse"><stop stop-color="#040505" stop-opacity="0"/><stop offset="1" stop-color="#fff"/></linearGradient><clipPath id="clip0"><path fill="#fff" d="M0 0h640v465H0z"/></clipPath></defs></svg>