<?xml version="1.0" encoding="utf-8"?>
<!-- Generator: Adobe Illustrator 16.0.0, SVG Export Plug-In . SVG Version: 6.00 Build 0)  -->
<!DOCTYPE svg PUBLIC "-//W3C//DTD SVG 1.1//EN" "http://www.w3.org/Graphics/SVG/1.1/DTD/svg11.dtd">
<svg version="1.1" id="Layer_1" xmlns="http://www.w3.org/2000/svg" xmlns:xlink="http://www.w3.org/1999/xlink" x="0px" y="0px"
	 width="8384px" height="1984px" viewBox="0 0 8384 1984" enable-background="new 0 0 8384 1984" xml:space="preserve">
<path fill-rule="evenodd" clip-rule="evenodd" fill="#FFFFFF" d="M1243.04,1233.457c103.324,0,153.1-55.395,185.974-141.787
	l210.364-554.1h-179.386l-92.972,287.352h-1.867L1272.17,537.57h-190.646l191.575,506.172l-4.702,12.229
	c-8.446,22.55-24.399,29.119-47.88,29.119c-50.704,0-92.053-11.27-106.139-15.055l-38.495,142.76
	C1104.994,1221.271,1153.831,1233.457,1243.04,1233.457 M7744.118,901.002c-23.479,0-41.329-11.252-41.329-35.677
	c0-38.489,39.453-61.97,129.591-64.792V871.9C7816.437,886.928,7790.141,901.002,7744.118,901.002z M7665.213,1039.078
	c74.204,0,125.876-29.138,167.167-80.78c0,28.171,4.702,52.601,11.31,73.253h184.038c-10.321-25.345-14.066-61.974-14.066-122.074
	V730.111c0-141.829-59.179-211.32-207.548-211.32c-135.24,0-214.146,46.021-260.168,87.313l76.07,105.2
	c42.278-30.05,96.756-54.469,154.978-54.469c43.196,0,55.387,17.85,55.387,42.24v6.58c-206.581,9.4-310.823,77.977-310.823,190.672
	C7521.557,994.954,7592.925,1039.078,7665.213,1039.078z M7173.939,1031.551h185.945V725.379
	c24.419-19.723,60.088-46.021,112.689-46.021c13.147,0,39.452,2.828,46.95,3.775V518.791h-1.878
	c-92.014,0-135.211,52.6-156.814,87.313h-0.947v-77.908h-185.945V1031.551z M6953.099,1047.514
	c36.647,0,104.244-5.608,113.647-8.436V909.477c-8.446,2.827-32.875,5.622-48.827,5.622c-52.591,0-65.749-13.149-65.749-66.706
	V670.941h128.643V537.57H6952.17V368.518h-185.935V537.57v133.371V889.75C6766.235,987.427,6782.18,1047.514,6953.099,1047.514z
	 M6201.832,1040.943h185.975V716.006c24.398-19.756,51.651-35.658,83.567-35.658c31.008,0,42.249,19.687,42.249,54.428v306.168
	h185.936V673.769c0-108.026-65.719-145.572-144.615-145.572c-92.973,0-145.572,52.559-167.137,87.31V537.57h-185.975V1040.943z
	 M5838.243,910.407c-23.47,0-41.319-11.252-41.319-35.708c0-38.467,39.481-61.965,129.629-64.773v71.344
	C5910.57,896.328,5884.274,910.407,5838.243,910.407z M5759.377,1048.471c74.165,0,125.846-29.129,167.176-80.799
	c0,28.199,4.692,52.6,11.271,73.271h184.068c-10.322-25.346-14.105-61.965-14.105-122.061V739.477
	c0-141.788-59.17-211.28-207.538-211.28c-135.241,0-214.146,45.989-260.14,87.31l76.043,105.205
	c42.276-30.051,96.745-54.47,154.967-54.47c43.207,0,55.435,17.841,55.435,42.237v6.578
	c-206.618,9.406-310.872,77.978-310.872,190.65C5615.681,1004.328,5687.06,1048.471,5759.377,1048.471z M4800.397,1040.943h167.167
	V601.44h1.838c15.025,91.066,23.509,122.093,39.453,178.417l71.369,261.086h165.299l73.275-261.086
	c15.024-53.521,26.267-97.672,37.547-169.053h1.867v430.139h179.404V345.995h-254.518l-109.874,471.44h-1.867l-122.103-471.44
	h-248.858V1040.943z M289.691,1040.943h167.167V601.44h1.877c15.024,91.066,23.49,122.093,39.453,178.417l71.37,261.086h165.289
	l73.255-261.086c15.015-53.521,26.295-97.672,37.576-169.053h1.867v430.139h179.375V345.995H772.412l-109.873,471.44h-1.887
	l-122.083-471.44H289.691V1040.943z"/>
<path fill-rule="evenodd" clip-rule="evenodd" fill="#FFFFFF" d="M4353.202,1233.457c103.295,0,153.1-55.395,185.945-141.787
	l210.401-554.1h-179.404l-92.963,287.352h-1.876l-92.973-287.352h-190.675l191.634,506.172l-4.703,12.229
	c-8.484,22.55-24.428,29.119-47.898,29.119c-50.724,0-92.053-11.27-106.159-15.055l-38.495,142.76
	C4215.136,1221.271,4264.012,1233.457,4353.202,1233.457 M3873.17,736.65c11.252-57.293,40.382-78.867,77-78.867
	c44.184,0,71.408,18.771,78.896,78.867H3873.17z M3957.697,1051.307c83.598,0,161.545-18.807,225.388-60.137l-66.639-112.691
	c-32.874,19.701-92.082,45.994-144.644,45.994c-54.506,0-91.104-15.943-100.499-81.67h322.143v-28.194
	c0-250.745-142.748-286.412-242.299-286.412c-102.395,0-264.87,60.086-264.87,262.016
	C3686.277,993.974,3819.651,1051.307,3957.697,1051.307z M3122.678,1040.943h185.944V716.006
	c24.418-19.756,51.643-35.658,83.607-35.658c30.978,0,42.22,19.687,42.22,54.428v306.168h185.964V673.769
	c0-108.026-65.719-145.572-144.605-145.572c-92.981,0-145.582,52.559-167.186,87.31V537.57h-185.944V1040.943z M2781.631,922.635
	c-64.801,0-82.631-58.258-82.631-131.507c0-78.894,21.604-129.587,82.631-129.587c63.861,0,82.649,56.343,82.649,129.587
	C2864.28,870.956,2842.677,922.635,2781.631,922.635z M2781.631,1051.307c121.145,0,268.584-54.506,268.584-261.095
	c0-209.457-147.439-262.016-268.584-262.016c-122.083,0-268.604,52.559-268.604,262.016
	C2513.026,996.801,2660.466,1051.307,2781.631,1051.307z M1690.207,1040.943h167.176V601.44h1.887
	c15.005,91.066,23.47,122.093,39.443,178.417l71.378,261.086h165.28l73.256-261.086c15.015-53.521,26.287-97.672,37.566-169.053
	h1.867v430.139h179.385V345.995h-254.499l-109.883,471.44h-1.877l-122.093-471.44h-248.887V1040.943z"/>
<g>
	<path fill-rule="evenodd" clip-rule="evenodd" fill="#FFFFFF" d="M5618.961,1613.994c-8.438,0.506-16.543,1.919-24.313,4.222
		c-7.777,2.32-14.396,5.804-19.852,10.427c-5.457,4.646-8.186,11.088-8.186,19.35c0,8.94,3.803,15.557,11.416,19.852
		c7.604,4.294,15.537,6.446,23.809,6.446c7.275,0,14.31-0.989,21.092-2.981c6.781-1.975,12.818-4.779,18.11-8.436
		c5.292-3.619,9.511-8.266,12.653-13.896c3.146-5.607,4.713-12.228,4.713-19.832v-15.885h-18.354
		C5634.42,1613.26,5627.396,1613.51,5618.961,1613.994z"/>
	<path fill-rule="evenodd" clip-rule="evenodd" fill="#FFFFFF" d="M7092.877,1537.334c-18.855,0-33.492,5.631-43.913,16.875
		c-10.419,11.261-15.634,25.982-15.634,44.174c0,18.188,5.215,32.913,15.634,44.152c10.421,11.242,25.058,16.873,43.913,16.873
		s33.492-5.631,43.913-16.873c10.419-11.239,15.634-25.965,15.634-44.152c0-18.191-5.215-32.913-15.634-44.174
		C7126.369,1542.965,7111.732,1537.334,7092.877,1537.334z"/>
	<path fill-rule="evenodd" clip-rule="evenodd" fill="#FFFFFF" d="M7400.023,1525.436c-8.271,0-15.556,1.316-21.835,3.966
		c-6.288,2.653-11.657,6.036-16.127,10.177c-4.46,4.145-7.933,8.922-10.419,14.379c-2.477,5.477-3.889,11.162-4.219,17.121h98.245
		c0.328-12.557-3.802-23.313-12.403-32.253C7424.666,1529.902,7413.588,1525.436,7400.023,1525.436z"/>
	<path fill-rule="evenodd" clip-rule="evenodd" fill="#FFFFFF" d="M6655.742,1525.436c-8.271,0-15.557,1.316-21.836,3.966
		c-6.287,2.653-11.657,6.036-16.127,10.177c-4.459,4.145-7.933,8.922-10.418,14.379c-2.478,5.477-3.891,11.162-4.219,17.121h98.244
		c0.328-12.557-3.802-23.313-12.402-32.253C6680.384,1529.902,6669.307,1525.436,6655.742,1525.436z"/>
	<path fill-rule="evenodd" clip-rule="evenodd" fill="#FFFFFF" d="M7677.143,1613.994c-8.438,0.506-16.543,1.919-24.313,4.222
		c-7.778,2.32-14.396,5.804-19.852,10.427c-5.457,4.646-8.186,11.088-8.186,19.35c0,8.94,3.803,15.557,11.416,19.852
		c7.604,4.294,15.537,6.446,23.809,6.446c7.275,0,14.309-0.989,21.092-2.981c6.781-1.975,12.818-4.779,18.109-8.436
		c5.293-3.619,9.512-8.266,12.654-13.896c3.145-5.607,4.713-12.228,4.713-19.832v-15.885h-18.354
		C7692.602,1613.26,7685.578,1613.51,7677.143,1613.994z"/>
	<path fill-rule="evenodd" clip-rule="evenodd" fill="#FFFFFF" d="M4800.427,1246.711v578.287h3226.837v-578.287H4800.427z
		 M5163.222,1663.375c-7.284,14.571-17.124,26.626-29.526,36.223c-12.402,9.598-26.799,16.715-43.168,21.342
		c-16.379,4.623-33.668,6.944-51.855,6.944c-22.822,0-44-3.483-63.514-10.427c-19.522-6.949-37.711-18.191-54.584-33.725
		l55.088-60.547c7.933,10.586,17.936,18.77,30.021,24.556c12.063,5.804,24.554,8.686,37.458,8.686
		c6.279,0,12.654-0.733,19.098-2.226c6.454-1.486,12.24-3.733,17.377-6.711c5.117-2.963,9.248-6.775,12.402-11.398
		c3.135-4.641,4.712-10.098,4.712-16.39c0-10.582-4.055-18.921-12.162-25.054c-8.106-6.118-18.274-11.32-30.513-15.615
		s-25.474-8.612-39.695-12.907c-14.221-4.294-27.455-10.099-39.693-17.375c-12.239-7.276-22.417-16.874-30.514-28.773
		c-8.117-11.918-12.161-27.61-12.161-47.134c0-18.866,3.724-35.407,11.165-49.632c7.439-14.22,17.364-26.12,29.768-35.718
		c12.413-9.597,26.712-16.796,42.926-21.592c16.205-4.778,32.913-7.199,50.114-7.199c19.852,0,39.026,2.826,57.563,8.439
		c18.518,5.631,35.225,15.072,50.114,28.285l-53.094,58.066c-6.289-7.951-14.812-13.814-25.56-17.626
		c-10.749-3.793-20.917-5.708-30.515-5.708c-5.63,0-11.405,0.68-17.366,1.992c-5.949,1.318-11.58,3.388-16.871,6.191
		c-5.292,2.827-9.598,6.543-12.897,11.166c-3.308,4.641-4.962,10.254-4.962,16.873c0,10.602,3.966,18.689,11.909,24.32
		c7.934,5.63,17.937,10.408,30.02,14.397c12.074,3.967,25.058,7.933,38.95,11.899s26.876,9.598,38.949,16.869
		c12.074,7.277,22.078,17.047,30.021,29.275c7.943,12.25,11.909,28.618,11.909,49.131
		C5174.135,1631.798,5170.488,1648.826,5163.222,1663.375z M5461.923,1621.699h-172.681c2.98,14.22,9.434,25.559,19.359,33.994
		c9.916,8.434,22.154,12.656,36.714,12.656c12.229,0,22.581-2.75,31.008-8.207c8.436-5.457,15.799-12.479,22.087-21.068
		l52.098,38.193c-11.91,15.228-26.963,26.973-45.151,35.233c-18.198,8.261-37.053,12.405-56.566,12.405
		c-18.528,0-35.98-2.981-52.35-8.94c-16.379-5.94-30.601-14.452-42.675-25.541c-12.074-11.088-21.583-24.401-28.53-39.957
		c-6.946-15.538-10.419-32.913-10.419-52.085c0-19.194,3.473-36.551,10.419-52.107c6.947-15.538,16.456-28.852,28.53-39.939
		c12.074-11.084,26.296-19.6,42.675-25.559c16.369-5.959,33.821-8.941,52.35-8.941c17.19,0,32.825,2.982,46.892,8.941
		c14.058,5.959,25.967,14.475,35.719,25.559c9.761,11.088,17.288,24.401,22.58,39.939c5.293,15.557,7.942,32.913,7.942,52.107
		V1621.699z M5726.881,1718.947h-68.477v-30.264h-0.987c-8.271,12.907-19.272,22.176-33,27.783
		c-13.728,5.631-28.201,8.439-43.419,8.439c-11.242,0-22.078-1.568-32.497-4.723c-10.419-3.133-19.601-7.855-27.544-14.143
		c-7.933-6.27-14.221-14.048-18.855-23.316c-4.633-9.251-6.946-20.006-6.946-32.257c0-13.892,2.563-25.618,7.692-35.216
		c5.126-9.598,12.073-17.53,20.838-23.817c8.766-6.287,18.779-11.165,30.02-14.649c11.242-3.46,22.91-6.036,34.983-7.678
		c12.074-1.664,24.147-2.652,36.222-2.981c12.074-0.328,23.238-0.501,33.494-0.501c0-13.218-4.713-23.723-14.135-31.5
		c-9.434-7.778-20.598-11.668-33.494-11.668c-12.247,0-23.411,2.572-33.493,7.701c-10.1,5.125-19.106,12.15-27.05,21.068
		l-39.693-40.668c13.892-12.908,30.096-22.582,48.633-29.047c18.518-6.443,37.712-9.676,57.554-9.676
		c21.835,0,39.772,2.731,53.839,8.189c14.058,5.475,25.309,13.485,33.746,24.067c8.425,10.604,14.299,23.567,17.605,38.95
		c3.31,15.383,4.965,33.164,4.965,53.348V1718.947z M5848.944,1718.947h-74.427v-375.121h74.427V1718.947z M6213.646,1537.334
		h-65.497v80.398c0,6.615,0.319,12.652,0.987,18.109c0.657,5.457,2.147,10.176,4.47,14.143c2.313,3.967,5.871,7.025,10.67,9.174
		c4.789,2.146,11.164,3.232,19.098,3.232c3.977,0,9.182-0.41,15.634-1.24c6.454-0.834,11.329-2.727,14.639-5.709v62.016
		c-8.272,2.977-16.872,4.969-25.802,5.959c-8.931,0.984-17.705,1.49-26.295,1.49c-12.578,0-24.159-1.336-34.742-3.967
		c-10.584-2.652-19.844-6.87-27.785-12.656c-7.934-5.785-14.145-13.313-18.604-22.582c-4.471-9.246-6.705-20.507-6.705-33.742
		v-114.625h-47.628V1477.8h47.628v-71.457h74.436v71.457h65.497V1537.334z M6483.564,1718.947h-74.426v-118.089
		c0-6.948-0.252-14.143-0.744-21.593c-0.494-7.432-1.984-14.303-4.461-20.59c-2.486-6.269-6.288-11.416-11.416-15.383
		c-5.137-3.967-12.49-5.959-22.077-5.959c-9.606,0-17.376,1.742-23.325,5.226c-5.949,3.465-10.507,8.106-13.641,13.892
		c-3.154,5.786-5.215,12.324-6.211,19.601c-0.988,7.276-1.48,14.882-1.48,22.814v120.081h-74.436v-375.121h74.436v166.732h0.986
		c1.654-4.646,4.469-9.27,8.436-13.896c3.967-4.643,8.766-8.764,14.387-12.42c5.621-3.62,12.238-6.598,19.853-8.923
		c7.604-2.32,15.875-3.483,24.805-3.483c18.856,0,34.075,2.904,45.655,8.69c11.57,5.786,20.587,13.814,27.039,24.068
		c6.453,10.259,10.836,22.331,13.148,36.224c2.313,13.892,3.473,28.946,3.473,45.158V1718.947z M6775.822,1621.699h-172.68
		c2.979,14.22,9.432,25.559,19.358,33.994c9.917,8.434,22.154,12.656,36.714,12.656c12.229,0,22.582-2.75,31.008-8.207
		c8.436-5.457,15.798-12.479,22.088-21.068l52.098,38.193c-11.91,15.228-26.964,26.973-45.152,35.233
		c-18.197,8.261-37.054,12.405-56.567,12.405c-18.526,0-35.979-2.981-52.349-8.94c-16.379-5.94-30.6-14.452-42.674-25.541
		c-12.074-11.088-21.584-24.401-28.531-39.957c-6.945-15.538-10.419-32.913-10.419-52.085c0-19.194,3.474-36.551,10.419-52.107
		c6.947-15.538,16.457-28.852,28.531-39.939c12.074-11.084,26.295-19.6,42.674-25.559c16.369-5.959,33.822-8.941,52.349-8.941
		c17.192,0,32.827,2.982,46.894,8.941c14.057,5.959,25.965,14.475,35.718,25.559c9.761,11.088,17.288,24.401,22.581,39.939
		c5.292,15.557,7.941,32.913,7.941,52.107V1621.699z M7220.9,1718.947h-68.477v-31.755h-0.996
		c-2.979,4.295-6.869,8.69-11.658,13.158c-4.799,4.45-10.419,8.513-16.873,12.15c-6.452,3.638-13.563,6.62-21.331,8.923
		c-7.779,2.32-15.81,3.482-24.071,3.482c-17.859,0-34.073-3.059-48.624-9.173c-14.56-6.132-27.04-14.727-37.46-25.81
		c-10.43-11.088-18.449-24.229-24.07-39.456c-5.631-15.205-8.436-31.905-8.436-50.11c0-16.874,2.563-32.991,7.691-48.374
		c5.127-15.383,12.402-29.024,21.835-40.942c9.423-11.899,20.917-21.4,34.479-28.522c13.564-7.122,28.947-10.683,46.147-10.683
		c15.548,0,30.021,2.422,43.421,7.199c13.398,4.801,24.389,12.984,32.999,24.574h0.987v-159.783h74.436V1718.947z
		 M7520.104,1621.699h-172.681c2.979,14.22,9.434,25.559,19.359,33.994c9.916,8.434,22.154,12.656,36.714,12.656
		c12.229,0,22.581-2.75,31.007-8.207c8.437-5.457,15.8-12.479,22.088-21.068l52.098,38.193
		c-11.91,15.228-26.963,26.973-45.151,35.233c-18.198,8.261-37.054,12.405-56.567,12.405c-18.527,0-35.98-2.981-52.349-8.94
		c-16.38-5.94-30.601-14.452-42.675-25.541c-12.074-11.088-21.584-24.401-28.531-39.957c-6.945-15.538-10.418-32.913-10.418-52.085
		c0-19.194,3.473-36.551,10.418-52.107c6.947-15.538,16.457-28.852,28.531-39.939c12.074-11.084,26.295-19.6,42.675-25.559
		c16.368-5.959,33.821-8.941,52.349-8.941c17.191,0,32.826,2.982,46.893,8.941c14.057,5.959,25.966,14.475,35.719,25.559
		c9.761,11.088,17.288,24.401,22.58,39.939c5.293,15.557,7.942,32.913,7.942,52.107V1621.699z M7785.063,1718.947h-68.477v-30.264
		h-0.988c-8.271,12.907-19.271,22.176-32.999,27.783c-13.728,5.631-28.202,8.439-43.419,8.439c-11.242,0-22.078-1.568-32.498-4.723
		c-10.418-3.133-19.6-7.855-27.543-14.143c-7.934-6.27-14.221-14.048-18.855-23.316c-4.634-9.251-6.946-20.006-6.946-32.257
		c0-13.892,2.563-25.618,7.691-35.216c5.127-9.598,12.074-17.53,20.839-23.817c8.766-6.287,18.779-11.165,30.02-14.649
		c11.242-3.46,22.91-6.036,34.982-7.678c12.074-1.664,24.148-2.652,36.223-2.981c12.074-0.328,23.238-0.501,33.494-0.501
		c0-13.218-4.713-23.723-14.135-31.5c-9.434-7.778-20.598-11.668-33.494-11.668c-12.247,0-23.412,2.572-33.493,7.701
		c-10.101,5.125-19.106,12.15-27.05,21.068l-39.694-40.668c13.892-12.908,30.097-22.582,48.634-29.047
		c18.518-6.443,37.711-9.676,57.553-9.676c21.836,0,39.773,2.731,53.84,8.189c14.057,5.475,25.309,13.485,33.745,24.067
		c8.426,10.604,14.299,23.567,17.606,38.95c3.309,15.383,4.965,33.164,4.965,53.348V1718.947z M7907.115,1718.947h-74.426v-375.121
		h74.426V1718.947z"/>
	<path fill-rule="evenodd" clip-rule="evenodd" fill="#FFFFFF" d="M5341.843,1525.436c-8.271,0-15.556,1.316-21.835,3.966
		c-6.289,2.653-11.658,6.036-16.128,10.177c-4.46,4.145-7.933,8.922-10.419,14.379c-2.477,5.477-3.889,11.162-4.219,17.121h98.245
		c0.33-12.557-3.802-23.313-12.401-32.253C5366.484,1529.902,5355.406,1525.436,5341.843,1525.436z"/>
</g>
<polygon fill-rule="evenodd" clip-rule="evenodd" fill="#FFFFFF" points="4800.397,1099.041 5016.846,1288.816 4800.397,1288.816 
	"/>
</svg>
